<svg width="906" height="597" viewBox="0 0 906 597" fill="none" xmlns="http://www.w3.org/2000/svg">
<g opacity="0.05" clip-path="url(#clip0_160_4429)">
<path d="M776.175 143.033C792.883 160.45 804.909 181.814 811.133 205.132C817.358 228.451 817.578 252.966 811.773 276.392C805.969 299.819 794.328 321.395 777.937 339.11C761.545 356.825 740.936 370.102 718.029 377.704C695.123 385.306 670.665 386.986 646.934 382.587C623.203 378.188 600.972 367.853 582.312 352.546C563.653 337.238 549.172 317.456 540.219 295.043C531.266 272.63 528.132 248.315 531.11 224.365L565.102 228.591C562.837 246.804 565.22 265.293 572.028 282.337C578.836 299.38 589.848 314.423 604.037 326.063C618.226 337.704 635.132 345.563 653.177 348.908C671.223 352.253 689.821 350.976 707.24 345.195C724.659 339.414 740.331 329.317 752.795 315.847C765.26 302.376 774.112 285.969 778.526 268.154C782.94 250.34 782.772 231.698 778.039 213.966C773.306 196.234 764.161 179.989 751.456 166.744L776.175 143.033Z" fill="#7541EE" fill-opacity="0.18"/>
<path d="M530.02 242.007C530.02 212.027 539.443 182.806 556.959 158.475C574.474 134.144 599.194 115.935 627.624 106.421C656.054 96.9072 686.755 96.571 715.387 105.46C744.018 114.348 769.131 132.012 787.175 155.954L759.194 177.042C745.572 158.968 726.613 145.633 704.998 138.923C683.383 132.212 660.206 132.466 638.743 139.648C617.28 146.831 598.618 160.578 585.395 178.946C572.173 197.314 565.058 219.374 565.058 242.007L530.02 242.007Z" fill="#BBC7F7"/>
<path d="M837.48 84.2323C864.113 111.998 883.284 146.054 893.207 183.226C903.129 220.398 903.48 259.478 894.227 296.823C884.974 334.167 866.418 368.562 840.287 396.801C814.157 425.041 781.304 446.206 744.788 458.325C708.273 470.444 669.284 473.121 631.454 466.109C593.625 459.096 558.186 442.621 528.44 418.219C498.695 393.818 475.61 362.283 461.339 326.554C447.067 290.825 442.071 252.064 446.819 213.884L482.509 218.322C478.511 250.477 482.718 283.122 494.737 313.213C506.757 343.304 526.199 369.862 551.251 390.414C576.303 410.965 606.149 424.84 638.009 430.746C669.87 436.652 702.706 434.397 733.46 424.191C764.213 413.984 791.883 396.159 813.89 372.375C835.896 348.592 851.525 319.625 859.318 288.173C867.111 256.721 866.815 223.808 858.458 192.501C850.101 161.195 833.956 132.513 811.525 109.129L837.48 84.2323Z" fill="#30E2D0" fill-opacity="0.18"/>
<path d="M445.079 242.005C445.079 208.956 452.267 176.302 466.143 146.308C480.019 116.313 500.253 89.6949 525.44 68.2986C550.628 46.9022 580.168 31.2395 612.012 22.3962C643.855 13.5528 677.242 11.7405 709.855 17.0848C742.469 22.429 773.531 34.802 800.887 53.3461C828.243 71.8901 851.239 96.1616 868.281 124.478C885.322 152.794 896.002 184.478 899.58 217.333C903.157 250.187 899.547 283.427 888.999 314.747L853.962 302.948C862.799 276.708 865.824 248.86 862.826 221.335C859.829 193.809 850.882 167.265 836.604 143.542C822.327 119.819 803.061 99.4841 780.143 83.9481C757.224 68.412 731.201 58.046 703.877 53.5686C676.553 49.0913 648.583 50.6096 621.904 58.0185C595.226 65.4273 570.478 78.5495 549.376 96.4752C528.273 114.401 511.322 136.701 499.697 161.831C488.071 186.96 482.05 214.317 482.05 242.005L445.079 242.005Z" fill="#12243E" fill-opacity="0.42"/>
<path d="M896.322 27.7855C932.483 65.4834 958.512 111.722 971.984 162.192C985.456 212.662 985.933 265.721 973.369 316.424C960.806 367.128 935.612 413.827 900.134 452.168C864.657 490.509 820.051 519.246 770.473 535.7C720.895 552.154 667.958 555.79 616.596 546.268C565.234 536.747 517.118 514.379 476.732 481.248C436.346 448.117 405.004 405.301 385.627 356.791C366.249 308.281 359.467 255.655 365.913 203.817L401.885 208.29C396.195 254.056 402.182 300.517 419.29 343.345C436.397 386.172 464.068 423.972 499.723 453.222C535.378 482.472 577.858 502.22 623.204 510.626C668.549 519.032 715.285 515.822 759.055 501.296C802.825 486.769 842.206 461.399 873.528 427.549C904.849 393.699 927.092 352.471 938.184 307.706C949.276 262.942 948.855 216.098 936.961 171.54C925.067 126.983 902.087 86.1607 870.162 52.8787L896.322 27.7855Z" fill="#1E87FD" fill-opacity="0.18"/>
<path d="M363.548 242C363.548 184.18 379.748 127.516 410.31 78.4331C440.872 29.35 484.574 -10.1888 536.462 -35.7007C588.35 -61.2125 646.347 -71.6768 703.879 -65.9073C761.411 -60.1377 816.175 -38.3651 861.964 -3.05775C907.752 32.2496 942.733 79.6791 962.94 133.854C983.147 188.028 987.772 246.78 976.29 303.449C964.809 360.118 937.68 412.437 897.98 454.474C858.28 496.51 807.597 526.584 751.676 541.284L742.263 505.475C791.492 492.533 836.111 466.058 871.061 429.051C906.011 392.044 929.894 345.985 940.001 296.097C950.109 246.208 946.038 194.486 928.249 146.793C910.459 99.101 879.664 57.3464 839.354 26.2637C799.044 -4.81917 750.832 -23.9867 700.184 -29.0659C649.536 -34.1452 598.478 -24.9329 552.799 -2.47355C507.12 19.9858 468.646 54.7938 441.741 98.0041C414.836 141.214 400.574 191.098 400.574 242L363.548 242Z" fill="#55BFCF"/>
</g>
<defs>
<clipPath id="clip0_160_4429">
<rect width="597" height="906" fill="white" transform="translate(0 597) rotate(-90)"/>
</clipPath>
</defs>
</svg>
