<svg width="40" height="40" viewBox="0 0 40 40" fill="none" xmlns="http://www.w3.org/2000/svg">
<path d="M3.33333 4.99996V4.16663C3.11232 4.16663 2.90036 4.25442 2.74408 4.4107C2.5878 4.56698 2.5 4.77895 2.5 4.99996H3.33333ZM21.6667 4.99996H22.5C22.5 4.77895 22.4122 4.56698 22.2559 4.4107C22.0996 4.25442 21.8877 4.16663 21.6667 4.16663V4.99996ZM21.6667 15V14.1666C21.4457 14.1666 21.2337 14.2544 21.0774 14.4107C20.9211 14.567 20.8333 14.7789 20.8333 15H21.6667ZM3.33333 5.83329H21.6667V4.16663H3.33333V5.83329ZM20.8333 4.99996V31.6666H22.5V4.99996H20.8333ZM4.16667 28.3333V4.99996H2.5V28.3333H4.16667ZM21.6667 15.8333H30V14.1666H21.6667V15.8333ZM35.8333 21.6666V28.3333H37.5V21.6666H35.8333ZM22.5 31.6666V15H20.8333V31.6666H22.5ZM31.7667 33.4333C31.2979 33.9015 30.6625 34.1644 30 34.1644C29.3375 34.1644 28.7021 33.9015 28.2333 33.4333L27.0533 34.6133C27.4403 35.0003 27.8996 35.3073 28.4052 35.5168C28.9108 35.7263 29.4527 35.8341 30 35.8341C30.5473 35.8341 31.0892 35.7263 31.5948 35.5168C32.1004 35.3073 32.5597 35.0003 32.9467 34.6133L31.7667 33.4333ZM28.2333 29.9C28.7021 29.4318 29.3375 29.1688 30 29.1688C30.6625 29.1688 31.2979 29.4318 31.7667 29.9L32.9467 28.72C32.5597 28.3329 32.1004 28.0259 31.5948 27.8165C31.0892 27.607 30.5473 27.4992 30 27.4992C29.4527 27.4992 28.9108 27.607 28.4052 27.8165C27.8996 28.0259 27.4403 28.3329 27.0533 28.72L28.2333 29.9ZM11.7667 33.4333C11.2979 33.9015 10.6625 34.1644 10 34.1644C9.3375 34.1644 8.70208 33.9015 8.23333 33.4333L7.05333 34.6133C7.44026 35.0003 7.89964 35.3073 8.40523 35.5168C8.91083 35.7263 9.45273 35.8341 10 35.8341C10.5473 35.8341 11.0892 35.7263 11.5948 35.5168C12.1004 35.3073 12.5597 35.0003 12.9467 34.6133L11.7667 33.4333ZM8.23333 29.9C8.70208 29.4318 9.3375 29.1688 10 29.1688C10.6625 29.1688 11.2979 29.4318 11.7667 29.9L12.9467 28.72C12.5597 28.3329 12.1004 28.0259 11.5948 27.8165C11.0892 27.607 10.5473 27.4992 10 27.4992C9.45273 27.4992 8.91083 27.607 8.40523 27.8165C7.89964 28.0259 7.44026 28.3329 7.05333 28.72L8.23333 29.9ZM31.7667 29.9C32.2567 30.3866 32.5 31.025 32.5 31.6666H34.1667C34.1667 30.6016 33.76 29.5333 32.9467 28.72L31.7667 29.9ZM32.5 31.6666C32.5 32.3083 32.2567 32.9466 31.7667 33.4333L32.9467 34.6133C33.3336 34.2263 33.6404 33.7669 33.8498 33.2613C34.0591 32.7557 34.1668 32.2138 34.1667 31.6666H32.5ZM26.6667 30.8333H21.6667V32.5H26.6667V30.8333ZM28.2333 33.4333C27.7644 32.9649 27.5006 32.3294 27.5 31.6666H25.8333C25.8333 32.7316 26.24 33.8 27.0533 34.6133L28.2333 33.4333ZM27.5 31.6666C27.5 31.025 27.7433 30.3866 28.2333 29.9L27.0533 28.72C26.6664 29.1069 26.3596 29.5664 26.1502 30.0719C25.9409 30.5775 25.8332 31.1194 25.8333 31.6666H27.5ZM8.23333 33.4333C7.76436 32.9649 7.50058 32.3294 7.5 31.6666H5.83333C5.83333 32.7316 6.24 33.8 7.05333 34.6133L8.23333 33.4333ZM7.5 31.6666C7.5 31.025 7.74333 30.3866 8.23333 29.9L7.05333 28.72C6.66645 29.1069 6.35958 29.5664 6.15025 30.0719C5.94092 30.5775 5.83323 31.1194 5.83333 31.6666H7.5ZM21.6667 30.8333H13.3333V32.5H21.6667V30.8333ZM11.7667 29.9C12.2567 30.3866 12.5 31.025 12.5 31.6666H14.1667C14.1667 30.6016 13.76 29.5333 12.9467 28.72L11.7667 29.9ZM12.5 31.6666C12.5 32.3083 12.2567 32.9466 11.7667 33.4333L12.9467 34.6133C13.3336 34.2263 13.6404 33.7669 13.8498 33.2613C14.0591 32.7557 14.1668 32.2138 14.1667 31.6666H12.5ZM35.8333 28.3333C35.8333 28.9963 35.5699 29.6322 35.1011 30.1011C34.6323 30.5699 33.9964 30.8333 33.3333 30.8333V32.5C34.4384 32.5 35.4982 32.061 36.2796 31.2796C37.061 30.4982 37.5 29.4384 37.5 28.3333H35.8333ZM30 15.8333C31.5471 15.8333 33.0308 16.4479 34.1248 17.5418C35.2188 18.6358 35.8333 20.1195 35.8333 21.6666H37.5C37.5 19.6775 36.7098 17.7698 35.3033 16.3633C33.8968 14.9568 31.9891 14.1666 30 14.1666V15.8333ZM2.5 28.3333C2.5 29.4384 2.93899 30.4982 3.72039 31.2796C4.50179 32.061 5.5616 32.5 6.66667 32.5V30.8333C6.00363 30.8333 5.36774 30.5699 4.8989 30.1011C4.43006 29.6322 4.16667 28.9963 4.16667 28.3333H2.5Z" fill="#F7F7F7"/>
<path d="M3.33325 13.3333H8.33325M3.33325 19.9999H11.6666" stroke="#F7F7F7" stroke-linecap="round" stroke-linejoin="round"/>
</svg>
