<svg width="42" height="43" viewBox="0 0 42 43" fill="none" xmlns="http://www.w3.org/2000/svg">
<path d="M39.75 25.9756C38.5 25.9756 37.6666 26.8089 37.6666 28.0589V36.3923C37.6666 37.6423 36.8333 38.4756 35.5833 38.4756H6.41663C5.16663 38.4756 4.33329 37.6423 4.33329 36.3923V28.0589C4.33329 26.8089 3.49996 25.9756 2.24996 25.9756C0.999959 25.9756 0.166626 26.8089 0.166626 28.0589V36.3923C0.166626 39.9339 2.87496 42.6423 6.41663 42.6423H35.5833C39.125 42.6423 41.8333 39.9339 41.8333 36.3923V28.0589C41.8333 26.8089 41 25.9756 39.75 25.9756ZM19.5416 29.5173C20.375 30.3506 21.625 30.3506 22.4583 29.5173L30.7916 21.1839C31.625 20.3506 31.625 19.1006 30.7916 18.2673C29.9583 17.4339 28.7083 17.4339 27.875 18.2673L23.0833 23.0589V3.05892C23.0833 1.80892 22.25 0.975586 21 0.975586C19.75 0.975586 18.9166 1.80892 18.9166 3.05892V23.0589L14.125 18.2673C13.2916 17.4339 12.0416 17.4339 11.2083 18.2673C10.375 19.1006 10.375 20.3506 11.2083 21.1839L19.5416 29.5173Z" fill="#6ACEE5"/>
</svg>
