<svg width="62" height="62" viewBox="0 0 62 62" fill="none" xmlns="http://www.w3.org/2000/svg">
<g clip-path="url(#clip0_85_4412)">
<path d="M30.8493 58.9652C46.3773 58.9652 58.9652 46.3773 58.9652 30.8493C58.9652 15.3213 46.3773 2.7334 30.8493 2.7334C15.3213 2.7334 2.7334 15.3213 2.7334 30.8493C2.7334 46.3773 15.3213 58.9652 30.8493 58.9652Z" stroke="#12243E" stroke-width="2" stroke-linecap="round" stroke-linejoin="round"/>
<path d="M56.0952 43.2672L40.1921 33.4852C39.9184 33.3092 39.6077 33.1989 39.2842 33.163L32.5774 32.2551C32.077 32.1833 31.5669 32.2794 31.1271 32.5285C30.6872 32.7776 30.3423 33.1656 30.1466 33.6316L26.1342 42.6229C25.9456 43.0411 25.8839 43.5055 25.9568 43.9584C26.0297 44.4114 26.2339 44.8329 26.5442 45.1709L32.0502 51.1162C32.2991 51.3897 32.4815 51.7171 32.5831 52.0727C32.6847 52.4283 32.7028 52.8026 32.636 53.1663L31.4938 58.9652" stroke="#12243E" stroke-width="2" stroke-linecap="round" stroke-linejoin="round"/>
<path d="M12.3983 9.64526L9.76239 15.8542C9.5328 16.4054 9.52233 17.0235 9.73311 17.5821L13.1012 26.5441C13.2328 26.9176 13.4581 27.2511 13.7555 27.5126C14.0529 27.7742 14.4125 27.955 14.7998 28.0377L21.0673 29.385C21.4152 29.4553 21.7419 29.6058 22.0215 29.8244C22.3011 30.043 22.5259 30.3237 22.6781 30.6443L23.791 32.958C23.9888 33.3492 24.2898 33.6788 24.6615 33.9112C25.0332 34.1435 25.4614 34.2696 25.8997 34.2759H29.8535" stroke="#12243E" stroke-width="2" stroke-linecap="round" stroke-linejoin="round"/>
<path d="M38.0247 3.64136L40.7484 8.56164C40.9999 9.02422 41.0904 9.55731 41.0055 10.0769C40.9207 10.5966 40.6654 11.0732 40.2798 11.4318L32.4015 18.5486C32.2697 18.6746 32.122 18.7829 31.9622 18.8708L28.3599 20.8623C28.0165 21.0445 27.6356 21.1448 27.247 21.1552H20.9795C20.5178 21.1576 20.0668 21.2946 19.6818 21.5495C19.2968 21.8044 18.9946 22.1661 18.8122 22.5903L16.3813 28.3599" stroke="#12243E" stroke-width="2" stroke-linecap="round" stroke-linejoin="round"/>
</g>
<defs>
<clipPath id="clip0_85_4412">
<rect width="61.3082" height="61.3082" fill="white"/>
</clipPath>
</defs>
</svg>
