<svg width="40" height="40" viewBox="0 0 40 40" fill="none" xmlns="http://www.w3.org/2000/svg">
<path d="M38.9745 14.3231L37.1637 13.6261C36.9039 12.6589 36.5197 11.7323 36.0183 10.8634L36.8065 9.08895C36.9115 8.85262 36.8601 8.57613 36.6772 8.39332L34.2365 5.9527C34.0537 5.76988 33.7774 5.71848 33.541 5.8234L31.7658 6.61176C30.8968 6.11043 29.9705 5.72645 29.0039 5.46676L28.3067 3.65535C28.2139 3.41402 27.982 3.25488 27.7234 3.25488H24.2719C24.0133 3.25488 23.7815 3.4141 23.6886 3.65535L22.9913 5.46684C22.0247 5.72652 21.0984 6.11059 20.2294 6.61184L18.4543 5.8234C18.2179 5.71848 17.9415 5.76988 17.7586 5.9527L15.318 8.3934C15.1352 8.57621 15.0839 8.8527 15.1888 9.08902L15.3576 9.46895C14.6858 9.05223 13.8265 9.01348 13.5354 9.01348C13.5343 9.01348 13.5333 9.01348 13.5324 9.01348C13.1752 9.01348 11.9659 9.07145 11.2933 9.81121C11.0986 10.0254 10.9706 10.2743 10.9133 10.5465C8.16904 11.6151 6.34958 14.2402 6.33357 17.2145C5.71669 17.4111 5.26857 17.9895 5.26857 18.6707C5.26857 19.513 5.95372 20.1983 6.79599 20.1986C7.202 22.2429 8.50247 23.9376 10.2561 24.8893C8.25388 25.4107 6.39247 26.4079 4.83107 27.8198C2.45974 29.9642 0.967237 32.8883 0.628565 36.0537C0.609659 36.23 0.666534 36.4061 0.785128 36.5379C0.903722 36.6698 1.07271 36.7452 1.24997 36.7452H25.8171C25.9944 36.7452 26.1634 36.6699 26.2819 36.5379C26.4005 36.4061 26.4574 36.23 26.4385 36.0537C26.2037 33.8597 25.4142 31.7818 24.1625 29.9989C24.1983 30.0053 24.2346 30.0095 24.2719 30.0095H27.7235C27.9821 30.0095 28.2139 29.8503 28.3068 29.609L29.0038 27.7982C29.971 27.5383 30.8976 27.1542 31.7665 26.6529L33.541 27.441C33.7773 27.5459 34.0538 27.4945 34.2366 27.3117L36.6772 24.871C36.8601 24.6882 36.9114 24.4117 36.8065 24.1754L36.018 22.4002C36.5192 21.5314 36.9033 20.605 37.163 19.6385L38.9744 18.9412C39.2157 18.8484 39.3749 18.6165 39.3749 18.3579V14.9063C39.375 14.6478 39.2157 14.4159 38.9745 14.3231ZM12.2183 10.6521C12.4263 10.4232 12.9664 10.2635 13.5326 10.2635H13.5352C14.1008 10.2635 14.6409 10.4232 14.849 10.6521C14.9225 10.733 14.9478 10.8158 14.936 10.938C14.9353 10.9454 14.9353 10.9527 14.9348 10.96L14.9336 10.9599L14.6084 13.4643C14.5775 13.7032 14.3801 13.8766 14.1392 13.8766H12.9279C12.687 13.8766 12.4897 13.7032 12.4586 13.4643L12.1334 10.9599L12.1322 10.96C12.1318 10.9527 12.1318 10.9454 12.1311 10.938C12.1194 10.8157 12.1447 10.7329 12.2183 10.6521ZM10.9915 11.8732L11.2191 13.6254C11.3303 14.4812 12.0649 15.1266 12.928 15.1266H14.1393C15.0023 15.1266 15.7369 14.4812 15.8481 13.6254L16.0756 11.8732C18.1083 12.8294 19.4394 14.8557 19.4815 17.1428H7.58568C7.62771 14.8557 8.95888 12.8294 10.9915 11.8732ZM20.7336 17.2144C20.7279 16.1395 20.4854 15.1107 20.0501 14.184C21.0357 11.7916 23.3926 10.2021 25.9976 10.2021C29.5433 10.2021 32.4278 13.0866 32.4278 16.6322C32.4278 20.1777 29.5433 23.0622 25.9976 23.0622C23.817 23.0622 21.7965 21.9473 20.6194 20.1569C21.2942 19.9986 21.7987 19.3931 21.7987 18.6707C21.7987 17.9894 21.3506 17.4109 20.7336 17.2144ZM6.51857 18.6707C6.51857 18.52 6.64583 18.3928 6.79654 18.3928H6.97857H20.0887H20.2708C20.4215 18.3928 20.5488 18.52 20.5488 18.6707C20.5488 18.8213 20.4215 18.9486 20.2708 18.9486H6.79654C6.64583 18.9486 6.51857 18.8213 6.51857 18.6707ZM8.07599 20.1986H18.9912C18.383 22.6765 16.1506 24.4694 13.5347 24.4699C13.5343 24.4699 13.5339 24.4699 13.5335 24.4699C13.5331 24.4699 13.5328 24.4699 13.5325 24.4699C10.9165 24.4694 8.68411 22.6765 8.07599 20.1986ZM13.5336 25.7199H13.5347C15.0016 25.72 16.4088 25.9886 17.7078 26.4808L13.5336 30.655L9.35927 26.4808C10.6583 25.9887 12.0656 25.72 13.5325 25.7199H13.5336ZM5.37052 29.0116C5.757 28.6379 6.16943 28.2915 6.60404 27.974C6.60435 29.1532 6.60482 30.3319 6.6056 31.5103C6.60654 32.8378 6.60716 34.166 6.60739 35.4952H5.37052V29.0116ZM7.8556 31.5094C7.85458 30.0658 7.8538 28.6222 7.85365 27.1771C7.94724 27.1254 8.04169 27.0752 8.13685 27.0261L12.9086 31.7978V35.4951H7.8574C7.85716 34.1657 7.85646 32.8372 7.8556 31.5094ZM4.12052 30.4337V35.4952H1.96599C2.28028 33.609 3.03661 31.8882 4.12052 30.4337ZM14.1586 35.4952V31.7979L18.9303 27.0261C22.1295 28.6787 24.4793 31.7638 25.1012 35.4952H14.1586ZM22.2361 27.8197C22.0644 27.6643 21.8884 27.5146 21.7096 27.3693C22.1278 27.5365 22.5553 27.6804 22.9915 27.7976L23.5113 29.1484C23.1203 28.6789 22.6949 28.2346 22.2361 27.8197ZM38.125 17.9289L36.4122 18.5881C36.22 18.6621 36.0765 18.8261 36.0288 19.0266C35.7762 20.088 35.3571 21.0986 34.7834 22.0305C34.6754 22.2061 34.6608 22.4235 34.7444 22.6118L35.49 24.2905L33.6562 26.1243L31.9782 25.3791C31.79 25.2954 31.5724 25.3099 31.3968 25.4182C30.4651 25.9919 29.4543 26.411 28.3922 26.6637C28.1917 26.7114 28.0276 26.8549 27.9536 27.0472L27.2944 28.7595H24.7011L24.0419 27.0468C23.9679 26.8544 23.8038 26.711 23.6033 26.6632C22.5421 26.4107 21.5315 25.9918 20.5995 25.4179C20.4239 25.31 20.2065 25.2954 20.0182 25.3789L19.1692 25.756C18.4135 25.3915 17.6242 25.1009 16.8114 24.8893C18.2245 24.1224 19.3429 22.8727 19.9368 21.3466C21.3739 23.1877 23.6049 24.3123 25.9979 24.3123C30.2327 24.3123 33.678 20.8671 33.678 16.6323C33.678 12.3975 30.2327 8.95215 25.9979 8.95215C23.1872 8.95215 20.6181 10.5018 19.2801 12.9081C18.7373 12.1904 18.059 11.5747 17.274 11.0994C17.3212 10.9543 17.3145 10.795 17.2511 10.6523L16.5057 8.97387L18.3394 7.14004L20.0181 7.88559C20.2063 7.96918 20.424 7.95465 20.5994 7.84652C21.5314 7.27277 22.5419 6.85371 23.6033 6.60121C23.8037 6.55348 23.9679 6.41004 24.0419 6.2177L24.7011 4.50488H27.2944L27.9537 6.21762C28.0276 6.40996 28.1918 6.5534 28.3922 6.60113C29.4535 6.85371 30.4642 7.2727 31.3961 7.84645C31.5717 7.95457 31.7892 7.96902 31.9774 7.88551L33.6561 7.13996L35.4899 8.97371L34.7446 10.6517C34.661 10.8401 34.6755 11.0576 34.7837 11.2332C35.3575 12.1649 35.7765 13.1757 36.0291 14.2378C36.0769 14.4382 36.2203 14.6024 36.4126 14.6764L38.125 15.3354V17.9289ZM24.8486 18.0267L24.4367 21.5565C24.4045 21.8329 24.5587 22.0972 24.8153 22.2051C24.8937 22.2381 24.976 22.254 25.0573 22.254C25.2419 22.254 25.4222 22.1721 25.5437 22.0219L30.3012 16.1368C30.4526 15.9495 30.4829 15.6918 30.379 15.4745C30.2753 15.2571 30.0559 15.1188 29.8151 15.1188H27.107L27.3077 11.6716C27.3236 11.3986 27.1601 11.1469 26.9043 11.0504C26.6487 10.954 26.3594 11.035 26.1912 11.2505L21.6877 17.0169C21.5406 17.2053 21.5137 17.4609 21.6185 17.6757C21.7233 17.8904 21.9413 18.0266 22.1802 18.0266L24.8486 18.0267ZM25.9434 13.5987L25.8207 15.7075C25.8107 15.8793 25.8719 16.0475 25.99 16.1727C26.1081 16.2979 26.2726 16.3688 26.4446 16.3688H28.5062L25.9285 19.5574L26.1716 17.4741C26.1923 17.2969 26.1363 17.1193 26.0176 16.9861C25.899 16.8529 25.7292 16.7767 25.5508 16.7767H23.4615L25.9434 13.5987Z" fill="white"/>
</svg>
