<svg width="24" height="24" viewBox="0 0 24 24" fill="none" xmlns="http://www.w3.org/2000/svg">
<g clip-path="url(#clip0_819_916)">
<path d="M0 24H24V0H0V24Z" fill="#005430"/>
<path d="M18 9.53295C17.9983 9.11135 17.8892 7.97572 17.8615 7.59474C17.8339 7.21377 17.8061 6.86814 17.8128 6.78721C17.8194 6.70911 17.8995 6.8958 17.9419 6.91089C17.9638 6.90431 17.954 6.7864 17.9142 6.68571C17.8872 6.61733 17.7954 6.36166 17.7396 6.21184C17.7134 6.14094 17.7076 6.09981 17.6949 6.0911C17.6824 6.08239 17.5809 6.38942 17.592 6.42345C17.6197 6.48585 17.6387 6.51563 17.643 6.62584C17.6474 6.73605 17.6854 7.52292 17.7338 8.11936C17.7702 8.56932 17.8502 9.53872 17.8531 10.1414C17.8539 10.3381 17.8393 10.5255 17.8219 10.6038C17.7771 10.7267 17.7071 10.8376 17.4465 11.0664C17.1535 11.3236 16.7627 11.5376 16.5947 11.6808C16.4902 11.7702 16.5249 11.7821 16.6158 11.743C16.7065 11.7039 17.1756 11.5786 17.4035 11.4342C17.6174 11.2982 17.7563 11.0708 17.8617 10.7391C17.9918 10.3289 18.0018 9.98088 18 9.53295Z" fill="white"/>
<path d="M17.093 6.33045C17.1156 6.31728 17.3031 6.3028 17.3536 6.3184C17.3204 6.38951 17.0956 6.54692 17.0947 6.57579C17.1008 6.59524 17.2499 6.53983 17.297 6.50904C17.3277 6.48128 17.3483 6.43833 17.371 6.40267C17.4248 6.30989 17.4886 6.13778 17.4725 6.11621C17.4464 6.08136 17.1908 6.10304 17.1572 6.11023C17.1346 6.11509 17.0773 6.26906 17.0668 6.30857C17.0565 6.34808 17.0703 6.34362 17.093 6.33045Z" fill="white"/>
<path d="M17.476 8.8293C17.515 8.63076 17.5247 8.38988 17.4715 8.13633C17.4169 7.87529 17.2812 7.71615 17.1833 7.63461L17.1658 7.88593C17.1658 7.88593 17.3031 7.98824 17.3969 8.24583C17.4564 8.40922 17.4812 8.64028 17.4342 8.89788C17.4264 8.9618 17.4568 8.92654 17.476 8.8293Z" fill="white"/>
<path d="M16.0239 10.0896C16.0591 9.91081 16.0678 9.69394 16.02 9.46561C15.9708 9.2305 15.8486 9.08717 15.7604 9.01403L15.7446 9.24023C15.7446 9.24023 15.8682 9.33241 15.9527 9.56418C16.0063 9.71116 16.0285 9.91952 15.9864 10.1514C15.9794 10.2087 16.0068 10.1771 16.0239 10.0896Z" fill="white"/>
<path d="M10.983 6.66765C11.0395 6.82274 11.063 7.04235 11.0185 7.28698C11.011 7.34765 11.0398 7.31433 11.0581 7.22194C11.0951 7.03353 11.1043 6.8046 11.0538 6.56362C11.0018 6.31554 10.8729 6.16451 10.7799 6.08722L10.7635 6.32588C10.7635 6.32588 10.8939 6.42302 10.983 6.66765Z" fill="white"/>
<path d="M7.57997 6.7479C7.62745 6.91484 7.63066 7.14022 7.55397 7.37766C7.53907 7.43732 7.57537 7.40906 7.60583 7.31982C7.66806 7.13739 7.70298 6.90906 7.67142 6.65683C7.63906 6.39752 7.5092 6.22075 7.41198 6.12503L7.36786 6.36196C7.36786 6.36196 7.5051 6.48473 7.57997 6.7479Z" fill="white"/>
<path d="M8.52067 10.4793C8.581 10.3114 8.60613 10.1983 8.63294 9.99936C8.65638 9.82432 8.65792 9.62213 8.64944 9.41629C8.83 9.30588 9.04519 9.12264 9.1175 9.10916C9.06805 9.36382 9.18608 9.63864 9.42449 9.60278C9.44275 9.89077 9.45838 10.1437 9.46788 10.2937C9.48731 10.6013 9.48439 10.9888 9.4838 11.0562C9.483 11.1238 9.51565 11.1111 9.54918 10.9604C9.59388 10.7586 9.60768 10.2316 9.59147 9.88317C9.5876 9.79606 9.58102 9.67845 9.57306 9.54444C9.72762 9.43716 9.75333 9.23011 9.8111 9.14188C9.86326 9.41589 10.1503 9.45307 10.2389 9.39441C10.3488 9.32158 10.3848 9.19061 10.413 8.88662C10.4414 8.58273 10.3588 8.46036 10.3293 8.42724C10.3264 8.46401 10.2545 8.82118 10.2545 8.82118C10.2545 8.82118 10.3227 8.92916 10.3261 8.98224C10.2706 9.0576 10.1535 9.06226 10.0552 9.01425C9.95682 8.96623 9.92666 8.8779 9.9325 8.81865C9.9382 8.75918 9.97523 8.70509 9.97647 8.63267C9.97757 8.56024 9.95441 8.58121 9.91504 8.64533C9.87567 8.70955 9.85025 8.76729 9.79577 8.90515C9.75121 9.0179 9.6789 9.15546 9.55137 9.19476C9.53033 8.86372 9.5063 8.51151 9.49023 8.29028C9.48183 8.17349 9.39791 7.16417 9.39192 7.05122C9.38673 6.95287 9.37702 6.83688 9.37862 6.78238C9.38023 6.73903 9.39834 6.75625 9.42639 6.80163C9.45451 6.84691 9.50367 6.92592 9.51214 6.91974C9.54078 6.89867 9.51149 6.76749 9.47402 6.64999C9.43662 6.53218 9.30894 6.06743 9.28213 6.04829C9.26833 6.03856 9.18214 6.32462 9.17703 6.38095C9.19039 6.4162 9.22531 6.47161 9.22655 6.62922C9.22699 6.67319 9.24583 7.08769 9.27198 7.47961C9.29484 7.82574 9.32516 8.15414 9.32808 8.19233C9.34889 8.45651 9.37417 8.82888 9.3982 9.19496C9.25978 9.15546 9.22297 9.0185 9.22604 8.9404C9.22954 8.85228 9.25606 8.7528 9.24335 8.73031C9.21669 8.70631 9.05804 8.83931 8.8368 8.98224C8.77456 9.02235 8.70444 9.0654 8.63045 9.10623C8.61117 8.85673 8.58575 8.6195 8.57553 8.43807L8.57428 8.41792C8.71978 8.40384 8.83891 8.29363 8.89311 8.18868C8.96082 8.0575 9.00815 7.78755 9.01275 7.5807C9.01736 7.37365 8.90597 6.99511 8.87945 6.87477C8.85272 6.75432 8.83891 6.67086 8.83658 6.62922C8.83417 6.58759 8.89676 6.67744 8.93613 6.69507C8.96279 6.70307 8.95359 6.61646 8.92101 6.557C8.88866 6.49774 8.71365 6.09934 8.70138 6.1273C8.69385 6.14371 8.62373 6.43676 8.61913 6.48163C8.64674 6.50898 8.67903 6.58435 8.68129 6.65657C8.68363 6.7288 8.72219 7.04636 8.76492 7.22282C8.8078 7.39928 8.8991 7.73781 8.90487 7.8309C8.83965 7.89989 8.69115 8.01668 8.54426 8.00969C8.51914 7.70094 8.48729 7.34235 8.47027 7.0884C8.4637 6.99024 8.46326 6.8855 8.46428 6.8308C8.46509 6.78745 8.4859 6.79342 8.51454 6.838C8.54331 6.88257 8.58743 6.9474 8.59649 6.94274C8.61621 6.93291 8.59912 6.83455 8.56004 6.71776C8.52096 6.60096 8.36568 6.10694 8.33843 6.0885C8.32463 6.07908 8.25509 6.35653 8.25071 6.41316C8.26459 6.44821 8.30016 6.5024 8.30366 6.66002C8.30644 6.78552 8.3472 7.4006 8.38211 7.94233C8.23676 7.82959 8.18716 7.66842 8.16919 7.39786C8.15663 7.20925 8.15539 6.8618 8.11054 6.57118C8.08527 6.40688 8.03202 6.23994 7.96891 6.15131C7.95387 6.2059 7.88667 6.5411 7.88667 6.5411C7.90858 6.63733 7.97673 6.96137 7.97439 7.24217C7.97213 7.52296 7.95737 7.79748 7.74759 7.9866C7.53796 8.17582 7.22352 8.10055 7.14587 7.80538C7.06823 7.51 7.24083 6.76942 7.23856 6.59458C7.23623 6.41974 7.21541 6.39563 7.16669 6.4245C7.11805 6.45337 7.01849 6.62193 6.93274 6.89614C6.84699 7.17055 6.80886 7.5104 6.76014 7.74146C6.71157 7.97252 6.63378 8.20661 6.5134 8.19365C6.39303 8.18088 6.32824 8.01567 6.29121 7.77671C6.2541 7.53755 6.27682 7.22262 6.2869 7.14188C6.31203 6.9397 6.25381 6.98113 6.21817 7.29859C6.19611 7.4944 6.1742 7.8071 6.25184 8.13439C6.32934 8.46168 6.46147 8.58374 6.57724 8.5419C6.69309 8.50027 6.79491 8.09275 6.83084 7.90971C6.86671 7.72697 7.02718 6.91528 7.11805 6.87537C7.13075 6.96684 7.04741 7.26172 7.02075 7.60663C6.99417 7.95155 7.05618 8.41488 7.34805 8.495C7.63993 8.57523 7.83795 8.2913 7.90975 8.09417C7.98162 7.89675 8.01515 7.6898 8.02325 7.58556C8.0326 7.85015 8.15298 8.26334 8.38678 8.38115L8.41089 8.39158C8.42528 8.60815 8.44872 8.89087 8.47027 9.18777C8.42477 9.20884 8.37882 9.22788 8.3331 9.24429C8.32726 9.21583 8.32083 9.18797 8.31301 9.16234C8.24165 8.9321 8.12354 8.71988 7.95985 8.73457C7.79266 8.74946 7.61035 9.08414 7.61831 9.32857C7.62357 9.49298 7.6839 9.6279 7.90332 9.66245C8.00353 9.67835 8.10996 9.66164 8.21988 9.62567C8.23537 9.69364 8.24516 9.76121 8.24625 9.8228C8.17672 9.94476 7.60136 10.5957 7.17056 10.6583C6.73976 10.7208 6.60836 10.3821 6.60405 10.042C6.60084 9.78329 6.70455 9.52509 6.77745 9.3464C6.88175 9.23194 6.96736 9.0888 7.02141 8.97839C7.03609 8.99196 7.05004 9.00452 7.06334 9.01617C7.11483 9.06105 7.13536 9.12811 7.13536 9.12811C7.14485 9.10623 7.18912 8.9867 7.1718 8.92825C7.16384 8.91386 7.12491 8.8779 7.07809 8.83526C7.12725 8.65151 7.12659 8.46806 7.0629 8.42724C6.99168 8.38175 6.8987 8.50817 6.8586 8.58526C6.83778 8.62537 6.82982 8.67085 6.82968 8.70904C6.82938 8.75817 6.8448 8.80254 6.88292 8.84205C6.9209 8.88094 6.95618 8.91619 6.98935 8.948C6.89519 9.0963 6.67271 9.31358 6.53656 9.44121C6.53152 9.42247 6.51158 9.44223 6.48477 9.48963L6.44789 9.52377C6.33927 9.62345 6.0788 9.84235 6.0276 9.89593C5.97633 9.94962 6.00846 9.9399 6.0276 9.92794C6.06376 9.89867 6.11123 9.86322 6.16456 9.82411C6.24008 9.76871 6.32795 9.706 6.41385 9.6431C6.38843 9.70772 6.36213 9.78329 6.33883 9.86575C6.23636 10.2287 6.0707 10.9809 6.42904 11.4335C6.7719 11.8668 7.3612 11.7019 7.84993 11.2517C8.33872 10.8013 8.44427 10.643 8.52067 10.4793ZM6.92719 8.69C6.91024 8.67126 6.9079 8.64624 6.92171 8.62882C6.93931 8.60633 6.96181 8.58506 6.98737 8.57786C7.04157 8.56277 7.06319 8.65617 7.04142 8.80163C7.00023 8.76384 6.95786 8.72414 6.92719 8.69ZM8.04824 9.30355C7.79938 9.30527 7.78791 9.23751 7.79259 9.19415C7.79719 9.151 7.87469 9.03258 7.973 9.11068C8.01456 9.14381 8.06138 9.21309 8.1047 9.30011C8.08556 9.30223 8.06672 9.30335 8.04824 9.30355ZM7.28604 11.2666C6.81587 11.459 6.35724 11.1608 6.32948 10.5704C6.30823 10.1195 6.41786 9.77975 6.48857 9.5883C6.55599 9.53826 6.61968 9.48963 6.67234 9.44608C6.54927 9.74338 6.47725 10.1416 6.52538 10.4789C6.57987 10.861 6.80148 11.0927 7.1767 11.0179C7.54819 10.944 8.0505 10.4141 8.19293 10.2142C8.23632 10.1421 8.26495 10.0771 8.30396 9.94456C8.32002 9.89016 8.34259 9.81834 8.35099 9.7372C8.35647 9.68433 8.35939 9.6278 8.36005 9.57027C8.40366 9.55072 8.44748 9.52884 8.4916 9.50533C8.50657 9.74723 8.5176 9.98568 8.51826 10.1919C8.28679 10.5991 7.75621 11.074 7.28604 11.2666Z" fill="white"/>
<path d="M15.5099 9.7182C15.494 9.32314 15.4556 8.60809 15.4341 8.24535C15.4151 7.92252 15.3778 7.48005 15.3505 7.09057C15.3436 6.99251 15.3429 6.89861 15.3436 6.84401C15.3444 6.80086 15.3732 6.81747 15.402 6.86184C15.4308 6.90621 15.4758 6.96192 15.4842 6.95514C15.5124 6.93326 15.4787 6.82507 15.4392 6.70868C15.3996 6.59209 15.243 6.10982 15.2157 6.09148C15.2019 6.08216 15.1284 6.37106 15.1242 6.42768C15.1382 6.46253 15.1741 6.51652 15.178 6.67414C15.1819 6.83186 15.235 7.55694 15.2734 8.14334C15.2999 8.55096 15.3343 9.21607 15.3593 9.71759C15.358 9.7184 15.3828 10.1944 15.3856 10.2479C15.4009 10.5558 15.3929 10.9433 15.3914 11.0105C15.3897 11.0781 15.4227 11.0664 15.458 10.9164C15.494 10.7634 15.5145 10.4216 15.5173 10.1131L15.5099 9.7182Z" fill="white"/>
<path d="M14.175 8.3352C14.1268 8.35728 14.0511 8.2808 14.0569 8.12045C14.0621 7.9756 14.1035 7.83996 14.1194 7.75437C14.1413 7.63625 14.1415 7.5224 14.1229 7.58692C14.0811 7.73117 14.0033 8.01004 13.9873 8.19926C13.9711 8.38848 14.012 8.51044 14.0676 8.55208C14.1369 8.60424 14.1867 8.52148 14.2205 8.39952C14.2529 8.28273 14.2468 8.14638 14.2243 8.17849C14.2054 8.21202 14.1984 8.32436 14.175 8.3352Z" fill="white"/>
<path d="M13.482 8.9181C13.5076 8.81619 13.5135 8.71632 13.4939 8.77112C13.4496 8.89389 13.3665 9.13113 13.3422 9.29594C13.3179 9.46074 13.3474 9.57227 13.3941 9.61451C13.4524 9.66739 13.5004 9.59962 13.5367 9.49579C13.5714 9.39642 13.5731 9.27578 13.5518 9.30191C13.5334 9.32946 13.5212 9.42742 13.5002 9.43461C13.4564 9.4491 13.394 9.37414 13.4076 9.23354C13.4198 9.10692 13.4634 8.99174 13.482 8.9181Z" fill="white"/>
<path d="M11.464 11.0679C11.5067 10.9639 11.5279 10.856 11.4983 10.9105C11.4321 11.0322 11.3068 11.2686 11.2563 11.4419C11.2059 11.6152 11.222 11.7454 11.2669 11.8046C11.3229 11.8786 11.3854 11.8178 11.4399 11.7146C11.4923 11.6156 11.5119 11.4843 11.4845 11.5067C11.4604 11.5319 11.433 11.6356 11.4088 11.6375C11.3591 11.6411 11.3017 11.5418 11.3369 11.392C11.3687 11.2569 11.4331 11.1433 11.464 11.0679Z" fill="white"/>
<path d="M15.002 8.0319C14.953 8.05034 14.8805 7.96798 14.8926 7.80824C14.9037 7.66409 14.9505 7.5319 14.9697 7.44782C14.9964 7.33144 15.001 7.21788 14.9799 7.28069C14.9326 7.42169 14.8438 7.69398 14.82 7.88178C14.7963 8.06948 14.8321 8.19438 14.8861 8.24027C14.9532 8.2974 15.0061 8.21879 15.0448 8.09947C15.0819 7.98541 15.0813 7.84886 15.0574 7.87925C15.0373 7.91146 15.0259 8.02299 15.002 8.0319Z" fill="white"/>
<path d="M14.9869 9.99165C15.054 10.0488 15.1072 9.97017 15.1457 9.85085C15.1827 9.73679 15.1822 9.60024 15.1584 9.63063C15.1382 9.66264 15.1267 9.77437 15.1029 9.78328C15.0538 9.80162 14.9812 9.71936 14.9935 9.55962C15.0045 9.41547 15.0513 9.28318 15.0706 9.19921C15.0972 9.08282 15.1018 8.96906 15.0808 9.03207C15.0333 9.17307 14.9446 9.44536 14.9209 9.63296C14.8972 9.82086 14.933 9.94576 14.9869 9.99165Z" fill="white"/>
<path d="M15.8439 7.4883C15.8762 7.3475 15.8818 7.21004 15.8562 7.28611C15.7988 7.4567 15.6914 7.78611 15.6627 8.01352C15.634 8.24073 15.6775 8.39176 15.7427 8.44738C15.8239 8.51646 15.8881 8.42134 15.9349 8.2771C15.9795 8.13903 15.9789 7.97361 15.9501 8.01059C15.9258 8.04938 15.9118 8.18431 15.8829 8.19515C15.8237 8.21743 15.7358 8.11786 15.7507 7.92459C15.764 7.75015 15.8206 7.59021 15.8439 7.4883Z" fill="white"/>
<path d="M8.99516 9.9237C9.04797 9.7521 9.06711 9.5803 9.02825 9.67177C8.94126 9.8765 8.77742 10.2729 8.72147 10.5537C8.66545 10.8346 8.70694 11.0319 8.784 11.1128C8.88012 11.2133 8.96916 11.1043 9.04052 10.931C9.10882 10.7648 9.1224 10.5566 9.08303 10.5982C9.04907 10.6428 9.0197 10.8103 8.98245 10.8192C8.90591 10.8372 8.80423 10.6972 8.83973 10.4566C8.87187 10.2395 8.95703 10.0479 8.99516 9.9237Z" fill="white"/>
<path d="M16.39 11.625C16.4304 11.5753 16.7823 11.2909 16.8471 11.2332C16.8471 11.2332 16.9134 11.0711 16.8935 11.0539C16.8736 11.0367 16.7451 11.2119 16.6652 11.2168C16.5852 11.2216 16.4757 11.1335 16.4722 11.0613C16.4826 11.0068 16.5788 10.9249 16.6135 10.9216C16.6483 10.9186 16.6427 11.0373 16.6543 11.0518C16.6659 11.066 16.7122 10.9698 16.718 10.9297C16.7237 10.8897 16.7189 10.7221 16.6553 10.7462C16.5546 10.7843 16.4027 11.0645 16.3854 11.1527C16.3679 11.241 16.4618 11.3179 16.5303 11.3597C16.5244 11.3629 16.4733 11.3998 16.4409 11.4478C16.4409 11.4478 16.4062 11.5063 16.39 11.625Z" fill="white"/>
<path d="M15.19 11.9772C15.2304 11.9275 15.5823 11.6433 15.6471 11.5854C15.6471 11.5854 15.7135 11.4233 15.6935 11.4061C15.6736 11.3889 15.5451 11.5641 15.4652 11.569C15.3852 11.5738 15.2757 11.4857 15.2722 11.4135C15.2826 11.359 15.3788 11.2771 15.4135 11.274C15.4483 11.2708 15.4427 11.3894 15.4543 11.4038C15.4659 11.4182 15.5121 11.322 15.518 11.2819C15.5237 11.2419 15.5188 11.0743 15.4553 11.0984C15.3546 11.1367 15.2027 11.4167 15.1854 11.5051C15.1679 11.5932 15.2618 11.6701 15.3301 11.7119C15.3244 11.7151 15.2733 11.7519 15.2409 11.8C15.2409 11.8 15.2062 11.8585 15.19 11.9772Z" fill="white"/>
<path d="M12.487 6.8808C12.5185 6.9358 12.7252 7.32975 12.8872 7.57742C13.049 7.82529 13.3265 8.22642 13.5304 8.50134C13.5698 8.55462 13.6117 8.61236 13.6542 8.67243C13.7057 9.26461 13.7651 10.0182 13.7901 10.3297C13.8147 10.6366 13.8184 11.024 13.8189 11.0915C13.8193 11.1591 13.8518 11.1453 13.8826 10.9936C13.9239 10.7901 13.9287 10.2632 13.9068 9.91514C13.8932 9.70019 13.8611 9.29753 13.8301 8.92628C13.9504 9.10466 14.0642 9.28163 14.1408 9.41413C14.2817 9.65734 14.4002 9.84079 14.4725 10.1022C14.5236 10.2872 14.5184 10.4344 14.5394 10.4635C14.5575 10.4886 14.5775 10.2672 14.5551 10.0526C14.5189 9.70404 14.4693 9.55624 14.1709 9.05857C14.0571 8.86834 13.9232 8.66949 13.7922 8.48362C13.7872 8.42628 13.7826 8.3732 13.7784 8.3261C13.768 8.20971 13.667 7.20343 13.659 7.09069C13.6522 6.99253 13.6403 6.87695 13.6412 6.82235C13.642 6.7789 13.6604 6.79581 13.6893 6.84018C13.7181 6.88445 13.7685 6.96194 13.777 6.95515C13.8052 6.93327 13.7738 6.80331 13.7343 6.68672C13.6949 6.57033 13.5593 6.10983 13.532 6.0916C13.5182 6.08228 13.4369 6.37108 13.4328 6.4276C13.4469 6.46245 13.4827 6.51674 13.4865 6.67416C13.4876 6.71812 13.5136 7.13202 13.5463 7.52282C13.5752 7.86814 13.611 8.19563 13.6147 8.23351L13.6149 8.23645C13.4798 8.05169 13.3608 7.89478 13.2887 7.79622C13.1199 7.56617 12.7473 7.02029 12.7323 6.93854C12.729 6.91271 12.7579 6.92861 12.8111 6.94138C12.8644 6.95424 12.9119 6.98149 12.9034 6.94219C12.8995 6.92365 12.8791 6.87786 12.8281 6.83066C12.7772 6.78335 12.6466 6.66079 12.5494 6.57408C12.4521 6.48747 12.4038 6.41484 12.3838 6.4356C12.3738 6.44583 12.3827 6.74253 12.3885 6.7795C12.4128 6.78264 12.4556 6.82559 12.487 6.8808Z" fill="white"/>
<path d="M12.753 6.34725C12.7929 6.33408 12.9822 6.34127 13.051 6.36295C13.0222 6.39293 12.8285 6.53971 12.7902 6.57466C12.7522 6.60971 12.7425 6.62997 12.7617 6.62652C12.8172 6.60343 12.9423 6.57466 13.0023 6.52776C13.0588 6.48805 13.1551 6.29437 13.1926 6.22215C13.2299 6.14992 13.2299 6.11386 13.2204 6.09452C13.1821 6.06332 12.9354 6.03202 12.8164 6.07628C12.7834 6.10981 12.719 6.2884 12.7095 6.32557C12.7 6.36295 12.713 6.36042 12.753 6.34725Z" fill="white"/>
<path d="M13.806 6.324C13.8383 6.31336 13.9909 6.31914 14.0462 6.33656C14.023 6.36077 13.867 6.47909 13.8362 6.50745C13.8053 6.53551 13.7976 6.55192 13.813 6.54908C13.8578 6.53064 13.9586 6.50745 14.0069 6.46946C14.0524 6.43745 14.1301 6.28135 14.1602 6.22331C14.1903 6.16496 14.1903 6.13599 14.1826 6.1205C14.1519 6.09507 13.953 6.06995 13.8571 6.10571C13.8305 6.13265 13.7787 6.27659 13.7711 6.30658C13.7633 6.33656 13.7739 6.33464 13.806 6.324Z" fill="white"/>
<path d="M14.662 6.3075C14.6941 6.29686 14.8467 6.30264 14.902 6.32006C14.879 6.34427 14.7229 6.46258 14.692 6.49075C14.6612 6.51901 14.6536 6.53542 14.669 6.53258C14.7138 6.51414 14.8224 6.49075 14.8707 6.45296C14.9163 6.42095 14.9703 6.26485 15.0004 6.20661C15.0306 6.14846 15.0306 6.11929 15.0228 6.104C14.9921 6.07857 14.8089 6.05345 14.7131 6.089C14.6865 6.11615 14.6346 6.26009 14.6269 6.29008C14.6192 6.32006 14.6297 6.31814 14.662 6.3075Z" fill="white"/>
<path d="M14.1279 6.93285C14.0773 7.05258 14.1408 7.14922 14.164 7.24596C14.1327 7.28881 14.0846 7.24971 14.0686 7.21212C14.0344 7.13504 14.0458 6.97793 14.0056 6.95372C13.9953 6.99616 13.9886 7.04326 13.9886 7.04326C13.9886 7.04326 14.0192 7.15074 14.0115 7.22185C14.0066 7.2648 13.9813 7.31494 13.948 7.31595C13.859 7.31919 13.9028 7.12167 13.8685 7.00973C13.8615 7.03708 13.8564 7.06646 13.8483 7.09209C13.8545 7.12126 13.858 7.16218 13.859 7.18579C13.861 7.23269 13.8586 7.28323 13.8639 7.32325C13.8713 7.37987 13.8922 7.41745 13.9242 7.4211C13.9907 7.429 14.021 7.34827 14.031 7.28202C14.0425 7.34958 14.1304 7.42404 14.1736 7.34107C14.2309 7.23167 14.1851 7.13798 14.1557 7.03506C14.1345 6.95898 14.1407 6.90904 14.1279 6.93285Z" fill="white"/>
<path d="M11.631 6.6153C11.6356 6.66453 11.6525 6.69816 11.68 6.70322C11.7368 6.71406 11.7656 6.6463 11.7763 6.58998C11.7839 6.64883 11.8573 6.71812 11.8973 6.64944C11.9501 6.55857 11.9135 6.47511 11.8914 6.38465C11.8757 6.31759 11.8825 6.27504 11.8708 6.2948C11.8233 6.39468 11.8751 6.48209 11.892 6.56688C11.8636 6.60173 11.8235 6.56516 11.8108 6.53203C11.7838 6.46346 11.7985 6.32883 11.7648 6.30543C11.7546 6.3415 11.7473 6.38151 11.7473 6.38151C11.7473 6.38151 11.7702 6.47602 11.7613 6.53669C11.7558 6.57346 11.7325 6.6151 11.7036 6.61398C11.627 6.61145 11.6709 6.44391 11.6448 6.34555C11.638 6.36854 11.6327 6.39376 11.6247 6.41504C11.6293 6.44077 11.631 6.47602 11.631 6.49658C11.6316 6.5371 11.6278 6.58025 11.631 6.6153Z" fill="white"/>
<path d="M13.444 11.2545C13.4525 11.2341 13.4714 11.1782 13.4666 11.14C13.4619 11.1018 13.4307 10.9425 13.3701 10.9026C13.31 10.8627 13.2644 10.9464 13.2355 11.0627L13.2155 11.062C13.2108 11.0793 13.2048 11.105 13.2 11.1515C13.1933 11.2186 13.1806 11.2619 13.1038 11.3664C13.0393 11.454 12.8301 11.6641 12.6945 11.7629C12.5588 11.8619 12.4611 11.9473 12.4251 11.9732C12.3893 11.9987 12.3997 12.0082 12.4356 11.9921C12.4714 11.9761 12.6515 11.8891 12.7233 11.8448C12.7949 11.8001 12.8826 11.7266 12.9882 11.6238C13.1057 11.5096 13.1759 11.3953 13.1994 11.294C13.2162 11.2218 13.2206 11.1929 13.2206 11.1929C13.2206 11.1929 13.2647 11.232 13.3395 11.2576C13.4141 11.2834 13.4353 11.2751 13.444 11.2545ZM13.3428 11.0281C13.376 11.047 13.3962 11.1013 13.4022 11.1343C13.3641 11.1356 13.2939 11.1065 13.264 11.0862C13.282 11.0341 13.3132 11.0115 13.3428 11.0281Z" fill="white"/>
<path d="M12.649 11.3666C12.5448 11.3449 12.2824 11.285 12.2182 11.0565C12.2721 10.9386 12.5203 10.7893 12.8313 10.6496C13.1424 10.5102 13.4673 10.3293 13.5547 10.242C13.5738 10.2322 13.6108 10.2352 13.6108 10.2352C13.6265 10.1676 13.7046 9.93037 13.7095 9.88073C13.6225 9.88813 13.0868 9.94718 12.8488 9.96633C12.6107 9.98558 12.1521 9.98092 11.9993 9.97838C12.093 9.87729 12.3154 9.67996 12.6333 9.51161C12.6745 9.48973 12.7126 9.46998 12.7482 9.45215C12.7747 9.52285 12.7943 9.59275 12.7984 9.65363C12.8186 9.62243 12.8338 9.519 12.8287 9.41284C13.014 9.32411 13.1095 9.29473 13.1507 9.27802C13.1767 9.22747 13.2228 9.02306 13.2296 8.87445C13.202 8.79879 13.1153 8.70458 13.0381 8.62364C12.9318 8.51232 12.8172 8.41528 12.7029 8.45772C12.5465 8.51526 12.5151 8.94617 12.5516 9.03754C12.5632 9.06641 12.5907 9.11757 12.6232 9.18067C12.509 9.24804 12.3895 9.32725 12.2842 9.41052C12.0496 9.59589 11.7876 9.79868 11.7112 9.99368L11.6893 10.0097C11.6832 10.0281 11.6348 10.3299 11.6278 10.3624C11.6766 10.3599 12.041 10.3609 12.2947 10.349C12.5483 10.3369 12.7701 10.3248 12.8569 10.3248C12.7283 10.3705 12.3912 10.5584 12.2943 10.6689C12.1973 10.7797 12.1364 10.9482 12.1348 11.237C12.0445 11.1839 11.8765 11.0627 11.7334 10.7723C11.5739 10.4488 11.6069 10.116 11.5431 9.67936C11.4503 9.04565 11.2522 8.5106 11.1289 8.3469C11.0873 8.57056 11.082 8.73912 11.082 8.73912C11.082 8.73912 11.2365 9.25168 11.3148 9.57887C11.393 9.90616 11.4598 10.2286 11.4565 10.3008C11.3921 10.5127 11.0108 10.9566 10.693 11.2164C10.3916 11.4628 10.1261 11.4893 10.032 11.3139C10.0135 11.2796 10.001 11.2391 9.99388 11.1932C10.0348 11.1646 10.0758 11.1357 10.1179 11.1068C10.3889 10.9217 10.8702 10.5319 10.9829 10.3273C11.1046 10.0795 11.1029 9.73051 11.0316 9.53075C10.9605 9.3311 10.8491 9.09994 10.8404 9.01819C10.8336 8.9796 10.9127 9.03389 10.9595 9.03754C10.9821 9.03501 10.9708 8.98932 10.9222 8.9171C10.8834 8.85956 10.7331 8.67287 10.6757 8.60004C10.6613 8.5815 10.6506 8.589 10.6477 8.60855C10.6365 8.6831 10.6136 8.84275 10.6048 8.92156L10.6109 8.96127C10.6274 8.97595 10.6464 8.99246 10.6556 9.03369C10.6686 9.09214 10.7141 9.25523 10.7887 9.46106C10.8634 9.6668 10.9714 9.8939 10.982 10.0086C10.8942 10.1765 10.4515 10.5342 10.0202 10.829C10.0469 10.705 10.089 10.5648 10.1448 10.4091C10.1606 10.3828 10.1751 10.3502 10.1885 10.3136C10.2316 10.1957 10.2357 10.0515 10.2096 10.082C10.1873 10.1143 10.1712 10.2313 10.1457 10.2392C10.0933 10.2553 10.0198 10.1637 10.0383 9.99601C10.055 9.84477 10.1089 9.70823 10.1322 9.62081C10.1645 9.49986 10.1733 9.38033 10.1489 9.44536C10.0939 9.59062 9.99067 9.87202 9.95896 10.0686C9.92741 10.265 9.96094 10.3992 10.0162 10.4511C10.0369 10.4709 10.0567 10.4771 10.0755 10.4732C10.0377 10.5812 9.99096 10.7137 9.95685 10.8717C9.78345 10.9881 9.61472 11.0921 9.47506 11.1671C8.97304 11.4366 8.61528 11.5955 8.36504 11.7134L8.35525 11.72C8.37366 11.6307 8.37118 11.5546 8.35146 11.5774C8.32911 11.61 8.31311 11.727 8.28754 11.7347C8.23517 11.7508 8.16169 11.6592 8.1801 11.4914C8.1969 11.3402 8.2508 11.2039 8.27411 11.1163C8.30624 10.9955 8.31515 10.8758 8.29076 10.9409C8.23568 11.0862 8.13255 11.3676 8.10085 11.5641C8.06922 11.7605 8.10275 11.8947 8.15797 11.9468C8.22677 12.0116 8.28543 11.9321 8.33042 11.8091L8.3462 11.7586C8.36183 11.7586 8.3882 11.7531 8.42757 11.7399C8.54224 11.7012 8.82893 11.6388 9.22314 11.5617C9.51502 11.5048 9.71654 11.3846 9.91134 11.2508C9.91047 11.2831 9.91025 11.316 9.9112 11.3499C9.92179 11.7512 10.0971 11.8644 10.3368 11.7894C10.5681 11.7165 10.8905 11.3985 11.0838 11.1839C11.2853 10.9603 11.4016 10.7604 11.4313 10.6907C11.485 10.5198 11.4998 10.331 11.5034 10.242C11.521 10.4873 11.5353 10.8268 11.69 11.1181C11.8324 11.3861 12.1243 11.7601 12.6733 11.7703C12.6751 11.6724 12.649 11.3666 12.649 11.3666ZM12.6127 8.88033C12.6912 8.74804 12.859 8.83454 12.9848 9.00229C12.9203 9.02498 12.8327 9.0654 12.7361 9.11716C12.6787 9.01333 12.6146 8.91325 12.6127 8.88033Z" fill="white"/>
<path d="M9.52627 7.0665C9.56191 7.04209 9.67096 6.96855 9.78849 6.86583C9.90579 6.76383 10.016 6.64024 10.0699 6.55809C10.0906 6.52659 10.109 6.50197 10.1208 6.4727C10.156 6.49458 10.1802 6.51727 10.1953 6.52618C10.218 6.53935 10.2484 6.55829 10.2681 6.46125C10.2877 6.36431 10.2617 6.30171 10.2232 6.22695C10.1907 6.16425 10.1392 6.07005 10.0973 6.04665C10.0618 6.02669 10.0449 6.14561 10.0503 6.14268H10.0741L10.0787 6.14602C10.0298 6.18299 9.99198 6.29806 9.98818 6.33848C9.98431 6.38244 9.98986 6.41486 10.06 6.4419L10.0882 6.45436C10.0297 6.55829 9.92062 6.66577 9.84634 6.74195C9.74094 6.85033 9.59135 6.98577 9.54876 7.02487C9.50618 7.06376 9.50976 7.07602 9.52627 7.0665ZM10.1597 6.30293L10.1635 6.25096C10.2128 6.33524 10.2494 6.43552 10.2457 6.4497C10.2231 6.45244 10.1949 6.42104 10.1456 6.38943C10.1511 6.36431 10.1557 6.33656 10.1597 6.30293ZM10.0181 6.30303C10.0178 6.28723 10.0368 6.24326 10.077 6.21926C10.1171 6.19505 10.1349 6.26261 10.1384 6.34486L10.1265 6.37778L10.0903 6.35904C10.052 6.34223 10.0262 6.33271 10.0181 6.30303Z" fill="white"/>
<path d="M12.155 8.65305C12.2128 8.59572 12.3718 8.42351 12.462 8.31067C12.5248 8.23226 12.5985 8.11679 12.6485 8.01914C12.6799 8.04963 12.7092 8.07667 12.7359 8.10017C12.7873 8.14525 12.808 8.21211 12.808 8.21211C12.8175 8.19023 12.8617 8.07049 12.8444 8.01225C12.834 7.9932 12.7708 7.9378 12.7061 7.87844C12.7389 7.76802 12.7841 7.57708 12.7194 7.51022C12.6641 7.4535 12.5709 7.5474 12.5277 7.66926C12.4921 7.77015 12.4874 7.85575 12.5555 7.92584C12.5746 7.9456 12.5929 7.96423 12.6109 7.98196C12.5423 8.0945 12.4159 8.26103 12.326 8.37438C12.2143 8.51458 12.1087 8.65204 12.0903 8.68486L12.085 8.69762C12.0606 8.59572 12.0672 8.53281 12.0491 8.56664C11.9709 8.7507 12.0689 8.89981 12.1046 9.04871C12.0564 9.11435 11.9825 9.05408 11.9577 8.99665C11.905 8.87773 11.9226 8.63623 11.8609 8.59886C11.845 8.66409 11.8346 8.73672 11.8346 8.73672C11.8346 8.73672 11.8816 8.90214 11.8697 9.01134C11.8623 9.07738 11.8233 9.15467 11.7721 9.15599C11.635 9.16125 11.7026 8.85716 11.6497 8.68496C11.639 8.7272 11.6313 8.77238 11.6185 8.81148C11.6282 8.85676 11.6335 8.91956 11.6349 8.95593C11.6384 9.02815 11.6345 9.10564 11.6426 9.16764C11.6539 9.25475 11.6862 9.31269 11.7355 9.31806C11.8377 9.33052 11.8843 9.20593 11.8998 9.10433C11.9174 9.20826 12.0528 9.32252 12.1193 9.19509C12.2075 9.02663 12.1369 8.88239 12.0919 8.72396L12.0865 8.70339C12.0928 8.70674 12.1164 8.69124 12.155 8.65305ZM12.5546 7.70451C12.5885 7.6102 12.6599 7.6022 12.6813 7.65163C12.6983 7.69094 12.6997 7.76762 12.6741 7.84855C12.6112 7.78929 12.555 7.73125 12.5546 7.70451Z" fill="white"/>
<path d="M9.92426 8.05335C9.80389 8.04059 9.7391 7.87517 9.70207 7.63621C9.66496 7.39725 9.68768 7.08212 9.69776 7.00138C9.70784 6.92075 9.65108 6.96239 9.62903 7.15819C9.60711 7.3538 9.58505 7.6666 9.6627 7.99409C9.7402 8.32118 9.87233 8.44324 9.9881 8.4014C10.1039 8.35977 10.2058 7.95226 10.2417 7.76942C10.2776 7.58647 10.438 6.84042 10.5289 6.80031C10.5416 6.89178 10.4583 7.12122 10.4316 7.46613C10.4051 7.81105 10.4513 8.26344 10.7431 8.34366C11.035 8.42399 11.233 8.13996 11.3048 7.94253C11.3767 7.74541 11.4102 7.53816 11.4183 7.43402C11.4277 7.69871 11.5481 8.112 11.7819 8.22981C12.0078 8.34366 12.1804 8.23943 12.2566 8.09184C12.3243 7.96076 12.3795 7.69081 12.3842 7.48376C12.3888 7.27691 12.2696 6.89837 12.243 6.77782C12.2162 6.65758 12.2024 6.57412 12.2001 6.53248C12.1978 6.49085 12.2604 6.5807 12.2998 6.59833C12.3265 6.60633 12.3171 6.51972 12.2847 6.46026C12.2523 6.401 12.0772 6.0026 12.0649 6.03036C12.0574 6.04697 11.9873 6.34002 11.9827 6.38489C12.0104 6.41224 12.0426 6.48761 12.045 6.55983C12.0472 6.63206 12.0935 6.94962 12.1364 7.12608C12.1793 7.30254 12.2626 7.64107 12.2685 7.73416C12.1851 7.82229 11.9974 7.93443 11.8191 7.82077C11.6408 7.70671 11.5839 7.5415 11.5643 7.24632C11.5517 7.05771 11.5505 6.71026 11.5056 6.41974C11.4803 6.25554 11.4271 6.0886 11.3638 5.99997C11.3489 6.05436 11.2817 6.38976 11.2817 6.38976C11.3037 6.48599 11.3718 6.81004 11.3696 7.09083C11.3672 7.37142 11.3525 7.64604 11.1427 7.83526C10.933 8.02448 10.6344 7.94912 10.5567 7.65384C10.4791 7.35866 10.6517 6.69456 10.6494 6.51972C10.6471 6.34488 10.6261 6.32067 10.5775 6.34964C10.5289 6.37851 10.4292 6.54707 10.3436 6.82128C10.2578 7.09569 10.2198 7.3699 10.171 7.60096C10.1224 7.83202 10.0446 8.06611 9.92426 8.05335Z" fill="white"/>
<path d="M6.42915 7.0299C6.57728 7.01379 6.70247 6.84534 6.73483 6.80056C6.76726 6.75549 6.78472 6.68833 6.76149 6.71385C6.59013 6.94329 6.36085 6.94977 6.348 6.91118C6.35384 6.87269 6.41417 6.81009 6.50219 6.72196C6.55566 6.66837 6.60328 6.61813 6.63892 6.54692L6.64864 6.54945C6.71386 6.57093 6.78917 6.61367 6.81218 6.57943C6.84965 6.52403 6.85462 6.43326 6.814 6.33541C6.77968 6.25235 6.69962 6.17506 6.63009 6.11924C6.5607 6.06373 6.54726 6.15237 6.53834 6.18397C6.5298 6.21345 6.5333 6.23857 6.54799 6.23918C6.52564 6.28486 6.50971 6.34372 6.50387 6.39234C6.50007 6.42374 6.50314 6.44947 6.51168 6.47064C6.51417 6.47662 6.52702 6.50022 6.55135 6.5142L6.58151 6.52828C6.52958 6.6002 6.46976 6.65652 6.43835 6.68499C6.38167 6.73634 6.31447 6.82619 6.29365 6.91908C6.27276 7.01227 6.28087 7.04601 6.42915 7.0299ZM6.691 6.37451L6.6967 6.3271V6.29672C6.74367 6.34797 6.81875 6.44501 6.81415 6.50316C6.78442 6.49303 6.72774 6.4751 6.67391 6.45433C6.68078 6.43012 6.6864 6.40358 6.691 6.37451ZM6.55178 6.3893C6.51724 6.34797 6.55091 6.30674 6.58151 6.2802C6.62103 6.24597 6.64418 6.27423 6.66441 6.36408C6.65733 6.38981 6.6474 6.41483 6.63571 6.43883C6.60496 6.42455 6.56164 6.40166 6.55178 6.3893Z" fill="white"/>
<path d="M6.87357 9.53925C6.83098 9.59466 6.81447 9.77497 6.82317 9.78581C6.83179 9.79664 6.96487 9.86401 6.98569 9.87859L6.99518 9.8243C7.05858 9.90969 7.12885 10.3357 7.14448 10.337C7.16011 10.3381 7.18275 10.2887 7.19758 10.1756C7.21124 10.0707 7.2249 9.91364 7.23914 9.78581C7.25243 9.66881 7.27311 9.60185 7.32 9.58848C7.36696 9.57531 7.40173 9.66557 7.41386 9.72695C7.41386 9.72695 7.4468 9.60894 7.45381 9.5356C7.446 9.49701 7.37295 9.35155 7.31306 9.39966C7.25309 9.44788 7.21555 9.65199 7.20342 9.77963C7.19123 9.90706 7.18188 10.0651 7.16712 10.0904C7.15164 9.98161 7.10204 9.78692 7.04215 9.67752C6.9748 9.55495 6.89606 9.50998 6.87357 9.53925Z" fill="white"/>
<path d="M6.3059 9.32145C6.36148 9.29856 6.4866 9.26979 6.5465 9.22289C6.60296 9.18318 6.6993 8.9895 6.7367 8.91728C6.77402 8.84505 6.77409 8.80879 6.7646 8.78964C6.7264 8.75824 6.47959 8.72714 6.36053 8.77141C6.32766 8.80474 6.26331 8.98332 6.25382 9.0207C6.24417 9.05788 6.25732 9.05555 6.2972 9.04238C6.33716 9.02901 6.52656 9.0362 6.59507 9.05788C6.56651 9.08806 6.3728 9.23484 6.33453 9.26979C6.2964 9.30464 6.28676 9.3251 6.3059 9.32145Z" fill="white"/>
<path d="M17.781 10.3554C17.7753 10.1389 17.7046 9.80658 17.4358 9.29665C17.343 9.1206 17.2125 8.89146 17.0748 8.65676C17.071 8.57673 17.0672 8.5036 17.0638 8.44079C17.0457 8.11776 16.9846 7.45872 16.9583 7.06914C16.9519 6.97088 16.9514 6.86634 16.9523 6.81174C16.9533 6.76839 16.9741 6.77416 17.0027 6.81873C17.0313 6.8632 17.0755 6.92813 17.0847 6.92368C17.1042 6.91355 17.0872 6.81519 17.0481 6.6986C17.0091 6.5818 16.8617 6.10946 16.8346 6.09112C16.8206 6.0818 16.7511 6.35915 16.7468 6.41588C16.7606 6.45072 16.7962 6.50492 16.7997 6.66264C16.8033 6.82025 16.8667 7.75117 16.9032 8.33778L16.9051 8.3705C16.6993 8.02578 16.5054 7.71146 16.4257 7.58403C16.4119 7.56195 16.3967 7.53682 16.3803 7.50988C16.3673 7.35297 16.3553 7.20346 16.3471 7.07998C16.3404 6.98192 16.3399 6.87718 16.3411 6.82258C16.3418 6.77933 16.3627 6.7852 16.3914 6.82977C16.4201 6.87424 16.4641 6.93918 16.4733 6.93452C16.4929 6.92459 16.4759 6.82623 16.4367 6.70943C16.3978 6.59264 16.244 6.10946 16.2168 6.09112C16.203 6.0818 16.1302 6.38123 16.1259 6.43755C16.1399 6.4726 16.1754 6.5268 16.1789 6.68452C16.1803 6.75147 16.1919 6.95447 16.2074 7.21065C16.071 6.96744 15.9374 6.71278 15.9279 6.66101C15.9245 6.63549 15.9534 6.65119 16.0068 6.66416C16.06 6.67692 16.1098 6.70093 16.1013 6.66142C16.0973 6.64309 16.077 6.5973 16.0261 6.54989C15.9751 6.50259 15.8445 6.38002 15.7473 6.29351C15.65 6.2069 15.6018 6.13407 15.5817 6.15484C15.5717 6.16507 15.5806 6.46197 15.5863 6.49874C15.6108 6.50208 15.656 6.52933 15.6847 6.58707C15.7138 6.64481 15.8999 7.03622 16.0471 7.3009C16.0895 7.37708 16.1558 7.49519 16.2334 7.63154C16.2486 7.87536 16.2646 8.12728 16.2777 8.33778C16.3076 8.81792 16.4149 10.0842 16.416 10.4958C16.3367 10.6073 16.1746 10.7629 16.0079 10.7662C15.8411 10.7693 15.7497 10.7035 15.6825 10.5175C15.6617 10.4598 15.6425 10.4019 15.6233 10.3494C15.5779 10.2247 15.4765 10.1547 15.3788 10.1891L15.3639 10.195L15.3373 10.2142C15.2711 10.2662 15.2027 10.3533 15.1358 10.4884C15.0201 10.7228 14.9461 10.9771 14.8605 11.1973C14.7714 11.4266 14.7029 11.5805 14.5465 11.5437C14.4363 11.5178 14.3527 11.3761 14.3011 11.2017C14.446 11.0514 14.5511 10.8553 14.628 10.5835C14.7282 10.2303 14.7639 9.8321 14.755 9.38437C14.7464 8.96298 14.6184 7.97159 14.5846 7.59163C14.5508 7.21146 14.5023 6.89947 14.508 6.81833C14.5132 6.74003 14.5963 6.92439 14.6389 6.93816C14.6607 6.93087 14.649 6.81326 14.6077 6.71389C14.5796 6.64633 14.4908 6.33899 14.4327 6.1908C14.4053 6.1207 14.3988 6.08008 14.3861 6.07177C14.3735 6.06316 14.2767 6.37323 14.2884 6.40696C14.317 6.46835 14.3366 6.49762 14.3426 6.60763C14.3487 6.71764 14.4151 7.52518 14.473 8.11989C14.5167 8.56863 14.6132 9.38376 14.6256 9.98628C14.6297 10.1829 14.611 10.324 14.5948 10.4028C14.5532 10.5236 14.4853 10.6577 14.2469 10.9122C14.2101 10.5525 14.2501 10.2603 14.2152 10.2332C14.1758 10.2396 14.1696 10.4073 14.1651 10.6141C14.1629 10.7096 14.1657 10.8419 14.1777 10.984C13.8848 11.2776 13.498 11.5449 13.3164 11.6877C13.2098 11.7715 13.2482 11.7911 13.3384 11.7492C13.4286 11.7072 13.9244 11.5122 14.189 11.3034L14.2175 11.2797C14.2309 11.3497 14.2472 11.4175 14.2672 11.48C14.3563 11.7575 14.4835 11.9224 14.6213 11.9062C14.7372 11.8929 14.8213 11.7068 14.8946 11.4849C14.9688 11.2602 15.0941 10.8335 15.2169 10.6748C15.2641 10.6136 15.3129 10.5652 15.3604 10.5361C15.3604 10.5361 15.4443 10.4941 15.5215 10.5697C15.5492 10.5971 15.5698 10.636 15.5829 10.6795C15.6134 10.7795 15.6494 10.9068 15.723 11.0133C15.8527 11.2007 16.0613 11.162 16.2178 11.053C16.374 10.9439 16.4538 10.7738 16.4886 10.5716C16.5479 10.2256 16.5384 9.8712 16.5271 9.55637C16.514 9.19707 16.4757 8.82987 16.4539 8.44079C16.4469 8.31569 16.4333 8.14167 16.4176 7.95295C16.5699 8.21673 16.7281 8.48445 16.8241 8.63083C16.8572 8.68137 16.8921 8.73749 16.928 8.79675C16.9566 9.38569 16.9842 10.1226 16.9987 10.4319C17.0131 10.74 17.0038 11.1274 17.0021 11.1947C17.0004 11.2621 17.0254 11.2506 17.0612 11.101C17.1093 10.9004 17.1394 10.3741 17.1289 10.0252C17.1226 9.81782 17.1088 9.43978 17.0939 9.0822C17.2122 9.293 17.3245 9.50583 17.3975 9.64946C17.5274 9.90453 17.6467 10.2078 17.6884 10.397C17.73 10.5865 17.7346 10.6426 17.7427 10.6763C17.7508 10.71 17.7867 10.5719 17.781 10.3554Z" fill="white"/>
<path d="M15.588 17.5605C15.5763 17.5102 15.5403 17.4732 15.4974 17.4732C15.4544 17.4732 15.4186 17.5102 15.4068 17.5605H15C14.9959 17.4928 14.9999 17.4248 15.0127 17.3585L15.8525 17.3578L15.8759 17.4169C15.897 17.4702 15.9237 17.5183 15.9546 17.5605L15.588 17.5605ZM16.144 16.9751H15.1348C15.2123 16.8912 15.253 16.7686 15.2421 16.6447C15.2351 16.5665 15.1835 16.5082 15.1206 16.5003H15.089C15.0125 16.5115 14.957 16.5942 14.9651 16.6851L14.9681 16.7201L14.9719 16.7738C14.976 16.8413 14.972 16.9091 14.9593 16.9751H7.49963C7.6104 17.2169 7.81236 17.3651 8.03045 17.3649L14.8376 17.3586C14.7597 17.4427 14.7189 17.5654 14.7299 17.6896C14.7379 17.7805 14.8064 17.8452 14.8829 17.834C14.9594 17.8228 15.0149 17.74 15.0069 17.649L15.0038 17.6142H15.4039C15.4109 17.6728 15.4499 17.7177 15.4974 17.7177C15.5449 17.7177 15.5839 17.6728 15.591 17.6142H15.9979V17.6128C16.0829 17.7032 16.1909 17.7552 16.3051 17.7552C16.4126 17.7552 16.4997 17.6432 16.4997 17.505V17.4327C16.4997 17.1801 16.3404 16.9751 16.144 16.9751" fill="white"/>
</g>
<defs>
<clipPath id="clip0_819_916">
<rect width="24" height="24" rx="12" fill="white"/>
</clipPath>
</defs>
</svg>
