<svg width="47" height="36" viewBox="0 0 47 36" fill="none" xmlns="http://www.w3.org/2000/svg">
<path d="M24.4583 18.2673C25.5699 17.305 26.4615 16.1149 27.0726 14.7777C27.6837 13.4405 28 11.9875 28 10.5173C28 7.75458 26.9025 5.10506 24.949 3.15156C22.9955 1.19805 20.346 0.100586 17.5833 0.100586C14.8206 0.100586 12.1711 1.19805 10.2176 3.15156C8.26409 5.10506 7.16663 7.75458 7.16663 10.5173C7.16661 11.9875 7.48288 13.4405 8.09397 14.7777C8.70506 16.1149 9.59667 17.305 10.7083 18.2673C7.79192 19.5878 5.3176 21.7204 3.58117 24.4101C1.84474 27.0997 0.919692 30.2325 0.916626 33.4339C0.916626 33.9865 1.13612 34.5164 1.52682 34.9071C1.91752 35.2978 2.44743 35.5173 2.99996 35.5173C3.55249 35.5173 4.0824 35.2978 4.4731 34.9071C4.8638 34.5164 5.08329 33.9865 5.08329 33.4339C5.08329 30.1187 6.40025 26.9393 8.74446 24.5951C11.0887 22.2509 14.2681 20.9339 17.5833 20.9339C20.8985 20.9339 24.0779 22.2509 26.4221 24.5951C28.7663 26.9393 30.0833 30.1187 30.0833 33.4339C30.0833 33.9865 30.3028 34.5164 30.6935 34.9071C31.0842 35.2978 31.6141 35.5173 32.1666 35.5173C32.7192 35.5173 33.2491 35.2978 33.6398 34.9071C34.0305 34.5164 34.25 33.9865 34.25 33.4339C34.2469 30.2325 33.3218 27.0997 31.5854 24.4101C29.849 21.7204 27.3747 19.5878 24.4583 18.2673ZM17.5833 16.7673C16.3472 16.7673 15.1388 16.4007 14.111 15.7139C13.0832 15.0272 12.2821 14.0511 11.809 12.909C11.336 11.767 11.2122 10.5103 11.4534 9.29794C11.6945 8.08556 12.2898 6.97191 13.1639 6.09784C14.038 5.22376 15.1516 4.6285 16.364 4.38735C17.5764 4.14619 18.833 4.26996 19.9751 4.74301C21.1171 5.21605 22.0932 6.01713 22.78 7.04494C23.4667 8.07275 23.8333 9.28112 23.8333 10.5173C23.8333 12.1749 23.1748 13.7646 22.0027 14.9367C20.8306 16.1088 19.2409 16.7673 17.5833 16.7673ZM37.875 17.4339C39.2082 15.9325 40.0791 14.0778 40.3829 12.093C40.6866 10.1081 40.4102 8.07782 39.587 6.24642C38.7637 4.41501 37.4287 2.86058 35.7426 1.77022C34.0565 0.679857 32.0912 0.100049 30.0833 0.100586C29.5308 0.100586 29.0009 0.32008 28.6102 0.71078C28.2195 1.10148 28 1.63139 28 2.18392C28 2.73645 28.2195 3.26636 28.6102 3.65706C29.0009 4.04776 29.5308 4.26725 30.0833 4.26725C31.7409 4.26725 33.3306 4.92573 34.5027 6.09784C35.6748 7.26994 36.3333 8.85965 36.3333 10.5173C36.3303 11.6115 36.0402 12.6858 35.4918 13.6327C34.9434 14.5796 34.1559 15.366 33.2083 15.9131C32.8994 16.0913 32.6414 16.3457 32.4591 16.6521C32.2767 16.9585 32.176 17.3066 32.1666 17.6631C32.1579 18.0168 32.2394 18.3668 32.4034 18.6803C32.5674 18.9937 32.8086 19.2603 33.1041 19.4548L33.9166 19.9964L34.1875 20.1423C36.6987 21.3333 38.8173 23.2172 40.2937 25.5721C41.7701 27.9269 42.5428 30.6546 42.5208 33.4339C42.5208 33.9865 42.7403 34.5164 43.131 34.9071C43.5217 35.2978 44.0516 35.5173 44.6041 35.5173C45.1567 35.5173 45.6866 35.2978 46.0773 34.9071C46.468 34.5164 46.6875 33.9865 46.6875 33.4339C46.7045 30.2369 45.9038 27.0886 44.3614 24.2882C42.8189 21.4878 40.5861 19.1283 37.875 17.4339Z" fill="#6ACEE5"/>
</svg>
