<svg width="21" height="18" viewBox="0 0 21 18" fill="none" xmlns="http://www.w3.org/2000/svg">
<path d="M20.9167 1.68487C20.9167 1.10719 20.45 0.64023 19.875 0.64023H6.33332C5.75832 0.64023 5.29166 1.10719 5.29166 1.68487C5.29166 2.26256 5.75832 2.72952 6.33332 2.72952H19.875C20.45 2.72952 20.9167 2.26256 20.9167 1.68487ZM1.12499 7.95273H19.875C20.45 7.95273 20.9167 8.41969 20.9167 8.99737C20.9167 9.57506 20.45 10.042 19.875 10.042H1.12499C0.549988 10.042 0.0833206 9.57506 0.0833206 8.99737C0.0833206 8.41969 0.549988 7.95273 1.12499 7.95273ZM10.5 15.2652H19.875C20.45 15.2652 20.9167 15.7322 20.9167 16.3099C20.9167 16.8876 20.45 17.3545 19.875 17.3545H10.5C9.92499 17.3545 9.45832 16.8876 9.45832 16.3099C9.45832 15.7322 9.92499 15.2652 10.5 15.2652Z" fill="#020A4C"/>
</svg>
