<svg width="25" height="25" viewBox="0 0 25 25" fill="none" xmlns="http://www.w3.org/2000/svg">
<path d="M9.22144 19.3088H8.72144C4.72144 19.3088 2.72144 18.3088 2.72144 13.3088V8.30884C2.72144 4.30884 4.72144 2.30884 8.72144 2.30884H16.7214C20.7214 2.30884 22.7214 4.30884 22.7214 8.30884V13.3088C22.7214 17.3088 20.7214 19.3088 16.7214 19.3088H16.2214C15.9114 19.3088 15.6114 19.4588 15.4214 19.7088L13.9214 21.7088C13.2614 22.5888 12.1814 22.5888 11.5214 21.7088L10.0214 19.7088C9.86144 19.4888 9.49144 19.3088 9.22144 19.3088Z" stroke="#B6B6B6" stroke-width="1.5" stroke-miterlimit="10" stroke-linecap="round" stroke-linejoin="round"/>
<path d="M7.72144 8.30884H17.7214" stroke="#B6B6B6" stroke-width="1.5" stroke-linecap="round" stroke-linejoin="round"/>
<path d="M7.72144 13.3088H13.7214" stroke="#B6B6B6" stroke-width="1.5" stroke-linecap="round" stroke-linejoin="round"/>
</svg>
