<svg width="25" height="25" viewBox="0 0 25 25" fill="none" xmlns="http://www.w3.org/2000/svg">
<path d="M12.8815 11.6788C12.7815 11.6688 12.6615 11.6688 12.5515 11.6788C10.1715 11.5988 8.28149 9.64884 8.28149 7.24884C8.28149 4.79884 10.2615 2.80884 12.7215 2.80884C15.1715 2.80884 17.1615 4.79884 17.1615 7.24884C17.1515 9.64884 15.2615 11.5988 12.8815 11.6788Z" stroke="#B6B6B6" stroke-width="1.5" stroke-linecap="round" stroke-linejoin="round"/>
<path d="M7.88141 15.3688C5.46141 16.9888 5.46141 19.6288 7.88141 21.2388C10.6314 23.0788 15.1414 23.0788 17.8914 21.2388C20.3114 19.6188 20.3114 16.9788 17.8914 15.3688C15.1514 13.5388 10.6414 13.5388 7.88141 15.3688Z" stroke="#B6B6B6" stroke-width="1.5" stroke-linecap="round" stroke-linejoin="round"/>
</svg>
