<svg width="40" height="40" viewBox="0 0 40 40" fill="none" xmlns="http://www.w3.org/2000/svg">
<path d="M22.6401 24.5334L25.8734 21.2934C26.0401 21.1267 26.2934 21.0534 26.5201 21.12C26.7534 21.1867 26.9334 21.3667 26.9868 21.6001C27.5534 23.8534 26.9068 26.18 25.2734 27.82C23.6068 29.4867 21.2268 30.12 18.9668 29.5134L11.9068 36.5734C11.7801 36.7 11.6134 36.7667 11.4334 36.7667H4.0001C3.73343 36.7667 3.48676 36.6067 3.38676 36.3534C3.2801 36.1067 3.3401 35.82 3.53343 35.6267L14.3068 24.8534C13.7068 22.5934 14.3334 20.2134 16.0001 18.5534C17.6401 16.9134 19.9601 16.2734 22.2134 16.8334C22.4468 16.8934 22.6334 17.0667 22.6934 17.3001C22.7601 17.5334 22.6934 17.7801 22.5268 17.9467L19.2934 21.1867L19.8801 23.94L22.6401 24.5334ZM18.0934 20.5067L20.6201 17.9734H20.6134C19.2468 17.9734 17.9334 18.5067 16.9401 19.5C15.5334 20.9 15.0534 22.94 15.6868 24.8334C15.7668 25.0734 15.7068 25.34 15.5268 25.5134L5.60676 35.4334H11.1534L18.3001 28.2934C18.4801 28.1134 18.7468 28.0534 18.9801 28.1334C20.8734 28.7667 22.9134 28.2867 24.3201 26.88C25.3201 25.88 25.8534 24.5667 25.8468 23.1934L23.3201 25.7267C23.1601 25.8867 22.9334 25.9534 22.7068 25.9067L19.1734 25.1534C18.9134 25.1 18.7134 24.9 18.6601 24.64L17.9068 21.1134C17.8668 20.8934 17.9334 20.66 18.0934 20.5067Z" fill="white"/>
<path d="M36.0067 14.7734L33.7067 14.7867H33.7001C33.3334 14.7867 33.0334 14.4934 33.0334 14.1267C33.0334 13.76 33.3267 13.46 33.6934 13.4534L35.3267 13.4467L35.2867 6.31335L30.0467 6.34668L30.0867 13.48L31.5601 13.4733C31.9001 13.4733 32.2267 13.7667 32.2334 14.1334C32.2334 14.5 31.9401 14.8 31.5734 14.8067L30.0734 14.8133C30.0134 15.2534 29.8134 15.6667 29.4934 15.9934C29.1001 16.3934 28.5734 16.6134 28.0134 16.62L25.7601 16.6334H25.7467C25.1934 16.6334 24.6667 16.42 24.2734 16.0267C23.9467 15.7067 23.7467 15.2934 23.6801 14.8534L16.4601 14.9C16.4001 15.3467 16.2001 15.7534 15.8801 16.08C15.4867 16.48 14.9601 16.7 14.4001 16.7067L12.1467 16.72H12.1334C11.5801 16.72 11.0534 16.5067 10.6534 16.1134C10.3267 15.7934 10.1267 15.3867 10.0601 14.94L4.12674 14.9733H4.12007C3.7534 14.9733 3.4534 14.68 3.4534 14.3133L3.40007 5.84668C3.40007 5.67335 3.46674 5.50002 3.5934 5.37335C3.72007 5.24668 3.88673 5.18002 4.06673 5.17335L10.0001 5.12668C10.0601 4.68002 10.2601 4.27335 10.5801 3.94668C10.9734 3.54668 11.5001 3.32668 12.0601 3.32002L14.3134 3.30668C14.3134 3.30668 14.3201 3.30668 14.3267 3.30668C15.3734 3.30668 16.2401 4.08002 16.3934 5.08668L23.6134 5.04668C23.6734 4.60668 23.8734 4.19335 24.1934 3.86668C24.5867 3.46668 25.1134 3.24668 25.6734 3.24002L27.9267 3.22668C27.9334 3.22668 27.9334 3.22668 27.9401 3.22668C28.9867 3.22668 29.8534 4.00002 30.0067 5.00668L35.9401 4.97335C35.9401 4.97335 35.9401 4.97335 35.9467 4.97335C36.3134 4.97335 36.6134 5.26668 36.6134 5.63335L36.6667 14.1C36.6667 14.2733 36.6001 14.4467 36.4734 14.5734C36.3467 14.7 36.1801 14.7734 36.0067 14.7734ZM16.4734 13.56L23.6334 13.5134L23.5934 6.38002L16.4334 6.42002L16.4734 13.56ZM4.78007 13.6267L10.0201 13.5934L9.98007 6.46002L4.74007 6.49335L4.78007 13.6267ZM14.3267 4.64002C14.3201 4.64002 14.3201 4.64002 14.3267 4.64002L12.0667 4.65335C11.8601 4.65335 11.6667 4.73335 11.5267 4.88002C11.3867 5.02668 11.3067 5.22002 11.3067 5.42668L11.3601 14.6067C11.3601 14.8134 11.4401 15.0067 11.5867 15.1467C11.7334 15.2934 11.9267 15.38 12.1334 15.3667L14.3867 15.3534C14.5934 15.3534 14.7801 15.2734 14.9267 15.1267C15.0734 14.98 15.1467 14.7867 15.1467 14.58L15.0934 5.40002C15.0867 4.98668 14.7467 4.64002 14.3267 4.64002ZM27.9401 4.56002L25.6801 4.57335C25.4734 4.57335 25.2801 4.65335 25.1401 4.80002C24.9934 4.94668 24.9201 5.14002 24.9201 5.34668L24.9734 14.5267C24.9734 14.7334 25.0534 14.9267 25.2001 15.0667C25.3467 15.2067 25.5334 15.2867 25.7401 15.2867H25.7467L28.0001 15.28C28.2067 15.28 28.4001 15.2 28.5401 15.0534C28.6867 14.9067 28.7601 14.7134 28.7601 14.5067L28.7067 5.32668C28.7067 4.90002 28.3667 4.56002 27.9401 4.56002Z" fill="white"/>
<path d="M32.7601 21.62H32.7468C31.5534 21.62 30.5801 20.6534 30.5734 19.46C30.5668 18.5 31.7934 16.56 32.1668 15.9867C32.2868 15.8 32.5001 15.6867 32.7201 15.6867C32.9334 15.6534 33.1534 15.7934 33.2734 15.98C33.6534 16.5467 34.9068 18.4734 34.9134 19.4334C34.9268 20.6334 33.9601 21.6134 32.7601 21.62ZM32.7401 17.6134C32.2601 18.4467 31.9134 19.2067 31.9134 19.4534C31.9134 19.9134 32.2734 20.2867 32.7601 20.2867C33.2201 20.2867 33.5934 19.9067 33.5934 19.44C33.5868 19.2 33.2268 18.44 32.7401 17.6134Z" fill="white"/>
</svg>
