<svg width="54" height="54" viewBox="0 0 54 54" fill="none" xmlns="http://www.w3.org/2000/svg">
<path fill-rule="evenodd" clip-rule="evenodd" d="M28.8777 3.03475L34.9742 15.9663C35.2731 16.6163 35.8614 17.0706 36.5459 17.1802L50.1915 19.2611C50.7453 19.3408 51.2455 19.6474 51.5809 20.1126C51.9163 20.5778 52.0591 21.1631 51.9776 21.7384C51.909 22.2113 51.6912 22.6471 51.3584 22.9771L41.4755 33.0845C40.976 33.5826 40.7521 34.3094 40.8801 35.0168L43.2616 49.2613C43.4339 50.435 42.6716 51.5364 41.5469 51.7386C41.0832 51.8142 40.6083 51.7362 40.1895 51.5157L28.0204 44.8022C27.4125 44.454 26.6755 44.454 26.0676 44.8022L13.8271 51.5652C12.8001 52.1134 11.5403 51.7059 10.9932 50.6486C10.7799 50.2223 10.7047 49.7357 10.7789 49.2613L13.1603 35.0168C13.2755 34.3103 13.0534 33.5897 12.5649 33.0845L2.61055 22.9771C1.79648 22.1186 1.79648 20.739 2.61055 19.8805C2.94279 19.5605 3.35583 19.3456 3.80126 19.2611L17.4469 17.1802C18.1282 17.0626 18.7133 16.6107 19.0186 15.9663L25.1151 3.03475C25.356 2.51042 25.7902 2.1095 26.3193 1.92293C26.8483 1.73636 27.4274 1.77996 27.9252 2.04383C28.3358 2.26048 28.6695 2.60756 28.8777 3.03475Z" stroke="#6ACEE5" stroke-width="3" stroke-linecap="round" stroke-linejoin="round"/>
</svg>
