<svg width="41" height="41" viewBox="0 0 41 41" fill="none" xmlns="http://www.w3.org/2000/svg">
<path d="M12.1555 11.5865H14.7896C15.6117 11.5855 16.3998 11.2584 16.9811 10.677C17.5624 10.0957 17.8893 9.30748 17.8901 8.48538V4.68159C17.8893 3.85954 17.5623 3.07141 16.9811 2.49013C16.3998 1.90885 15.6116 1.58191 14.7896 1.58105H12.1555C11.3335 1.58191 10.5454 1.90885 9.96408 2.49013C9.3828 3.07141 9.05586 3.85954 9.055 4.68159V8.48538C9.05586 9.30748 9.38278 10.0957 9.96405 10.677C10.5453 11.2584 11.3334 11.5855 12.1555 11.5865ZM14.7896 2.66214C15.325 2.66271 15.8383 2.87566 16.2169 3.25425C16.5955 3.63285 16.8085 4.14618 16.8091 4.68159V8.48538C16.8085 9.02084 16.5956 9.53423 16.217 9.91291C15.8384 10.2916 15.3251 10.5047 14.7896 10.5054H12.1555C11.6201 10.5047 11.1068 10.2916 10.7282 9.91291C10.3496 9.53423 10.1367 9.02084 10.1361 8.48538V4.68159C10.1367 4.14618 10.3496 3.63285 10.7282 3.25425C11.1068 2.87566 11.6201 2.66271 12.1555 2.66214H14.7896Z" fill="white"/>
<path d="M23.5038 20.1552C23.9249 20.1541 24.3352 20.0221 24.6779 19.7774C25.0207 19.5327 25.2788 19.1875 25.4166 18.7896C25.5544 18.3917 25.565 17.9607 25.447 17.5565C25.3289 17.1523 25.0881 16.7948 24.7578 16.5335L16.6232 10.1276C16.5678 10.0809 16.5035 10.0459 16.4342 10.0246C16.3649 10.0033 16.2921 9.99615 16.22 10.0036C16.1479 10.011 16.0781 10.0328 16.0146 10.0678C15.9511 10.1027 15.8953 10.1501 15.8505 10.207C15.8057 10.264 15.7728 10.3294 15.7537 10.3993C15.7347 10.4692 15.7299 10.5423 15.7397 10.6141C15.7494 10.6859 15.7735 10.755 15.8106 10.8173C15.8476 10.8796 15.8967 10.9339 15.9551 10.9768L24.0892 17.3811C24.2832 17.5344 24.4096 17.7574 24.4414 18.0026C24.4731 18.2478 24.4077 18.4957 24.2592 18.6934C24.1106 18.891 23.8906 19.0227 23.6462 19.0603C23.4018 19.0979 23.1525 19.0384 22.9513 18.8946L15.4702 13.5325C15.3537 13.4489 15.2087 13.415 15.0672 13.4383C14.9257 13.4617 14.7992 13.5402 14.7157 13.6568C14.6321 13.7733 14.5982 13.9183 14.6215 14.0598C14.6448 14.2013 14.7234 14.3278 14.84 14.4114L22.3211 19.7735C22.6656 20.0214 23.0793 20.1549 23.5038 20.1552Z" fill="white"/>
<path d="M19.8514 23.5064C20.3969 23.5056 20.9224 23.3012 21.325 22.9331C21.7276 22.5651 21.9782 22.06 22.0278 21.5168C22.0774 20.9735 21.9223 20.4314 21.593 19.9965C21.2638 19.5617 20.7839 19.2654 20.2476 19.1659L15.0082 18.1973L11.1703 14.8767C11.1166 14.8303 11.0543 14.7949 10.9869 14.7726C10.9196 14.7502 10.8484 14.7414 10.7776 14.7465C10.7068 14.7517 10.6378 14.7707 10.5743 14.8025C10.5109 14.8344 10.4543 14.8784 10.4079 14.9321C10.3615 14.9858 10.3261 15.0481 10.3037 15.1155C10.2814 15.1829 10.2726 15.254 10.2777 15.3248C10.2828 15.3956 10.3019 15.4647 10.3337 15.5281C10.3656 15.5916 10.4096 15.6481 10.4633 15.6945L14.413 19.1108C14.4858 19.1737 14.5741 19.2161 14.6687 19.2335L20.0503 20.2297C20.1931 20.2571 20.3291 20.3123 20.4505 20.3923C20.572 20.4723 20.6765 20.5753 20.7581 20.6957C20.8396 20.816 20.8967 20.9513 20.9261 21.0937C20.9554 21.2361 20.9564 21.3828 20.929 21.5256C20.9016 21.6684 20.8463 21.8044 20.7664 21.9258C20.6864 22.0473 20.5833 22.1518 20.463 22.2334C20.3426 22.3149 20.2074 22.372 20.065 22.4014C19.9226 22.4307 19.7758 22.4317 19.633 22.4043L15.2606 21.5394C12.6069 21.2289 10.1345 20.0359 8.24007 18.1518C6.03844 13.8605 10.5103 11.1335 10.7017 11.0167C10.7627 10.9804 10.816 10.9324 10.8584 10.8755C10.9009 10.8186 10.9318 10.7539 10.9492 10.6851C10.9667 10.6163 10.9704 10.5447 10.9602 10.4745C10.95 10.4042 10.9261 10.3366 10.8898 10.2756C10.8535 10.2146 10.8055 10.1614 10.7486 10.1189C10.6917 10.0764 10.627 10.0456 10.5582 10.0281C10.4894 10.0106 10.4178 10.0069 10.3476 10.0171C10.2773 10.0273 10.2097 10.0512 10.1487 10.0875C10.0947 10.121 4.57034 13.4886 7.31304 18.7097C7.33177 18.7453 7.35443 18.7786 7.38061 18.8091C9.43101 20.929 12.1545 22.2702 15.0849 22.6032L19.4233 23.4643C19.5643 23.4925 19.7077 23.5066 19.8514 23.5064Z" fill="white"/>
<path d="M15.6892 39.4188H21.0557C21.199 39.4188 21.3365 39.3619 21.4379 39.2605C21.5392 39.1592 21.5962 39.0217 21.5962 38.8783V37.9086C21.5962 37.3495 21.3741 36.8133 20.9787 36.4179C20.5834 36.0226 20.0472 35.8005 19.4881 35.8005H19.1357V22.7496C19.1357 22.6063 19.0787 22.4688 18.9773 22.3674C18.876 22.2661 18.7385 22.2091 18.5951 22.2091C18.4518 22.2091 18.3143 22.2661 18.2129 22.3674C18.1115 22.4688 18.0546 22.6063 18.0546 22.7496V36.3426C18.0546 36.486 18.1115 36.6235 18.2129 36.7248C18.3143 36.8262 18.4518 36.8832 18.5951 36.8832H19.4902C19.6251 36.8832 19.7587 36.9097 19.8833 36.9613C20.0079 37.013 20.1211 37.0886 20.2165 37.184C20.3118 37.2793 20.3875 37.3926 20.4391 37.5172C20.4907 37.6418 20.5173 37.7753 20.5173 37.9102V38.3378H15.6892C15.5458 38.3378 15.4083 38.3947 15.3069 38.4961C15.2056 38.5975 15.1486 38.7349 15.1486 38.8783C15.1486 39.0217 15.2056 39.1592 15.3069 39.2605C15.4083 39.3619 15.5458 39.4188 15.6892 39.4188Z" fill="white"/>
<path d="M8.27947 39.4189H15.6892C15.8326 39.4189 15.97 39.3619 16.0714 39.2606C16.1728 39.1592 16.2297 39.0217 16.2297 38.8784V37.9594C16.2297 37.4003 16.0076 36.8641 15.6123 36.4688C15.2169 36.0734 14.6807 35.8513 14.1216 35.8513H14.0335V28.027C14.0335 27.8836 13.9766 27.7462 13.8752 27.6448C13.7738 27.5434 13.6363 27.4865 13.493 27.4865C13.3496 27.4865 13.2121 27.5434 13.1108 27.6448C13.0094 27.7462 12.9524 27.8836 12.9524 28.027V36.3919C12.9524 36.5352 13.0094 36.6727 13.1108 36.7741C13.2121 36.8755 13.3496 36.9324 13.493 36.9324H14.126C14.3983 36.9324 14.6596 37.0406 14.8522 37.2332C15.0448 37.4258 15.153 37.6871 15.153 37.9594V38.3378H8.82001V24.7492C8.82003 24.6577 8.79683 24.5677 8.75259 24.4876C8.70834 24.4075 8.6445 24.34 8.56703 24.2913C8.56703 24.2913 7.23244 23.2265 8.31785 18.5816C8.34419 18.4443 8.31631 18.3022 8.24008 18.185C8.16384 18.0678 8.04516 17.9847 7.90897 17.9532C7.77277 17.9216 7.62965 17.9441 7.50966 18.0158C7.38966 18.0875 7.30212 18.2029 7.26541 18.3378C6.23298 22.7551 7.22109 24.4459 7.73892 24.9924V38.8784C7.73892 39.0217 7.79588 39.1592 7.89725 39.2606C7.99862 39.3619 8.13611 39.4189 8.27947 39.4189Z" fill="white"/>
<path d="M8.27615 25.8183C8.40829 25.8179 8.53572 25.7691 8.63434 25.6812C8.73296 25.5932 8.79594 25.4722 8.81138 25.3409C8.82682 25.2097 8.79365 25.0773 8.71814 24.9689C8.64262 24.8604 8.53 24.7834 8.40155 24.7524L5.16209 23.9745C4.64243 23.8486 4.19003 23.53 3.89648 23.0831C3.60293 22.6362 3.49016 22.0944 3.58101 21.5675L5.20263 12.3097C5.78966 9.01776 9.43614 9.02749 9.58912 9.02317H9.59614C9.7395 9.02453 9.87753 8.96889 9.97987 8.86848C10.0822 8.76807 10.1405 8.63112 10.1418 8.48776C10.1432 8.3444 10.0875 8.20637 9.98713 8.10404C9.88672 8.0017 9.74978 7.94345 9.60642 7.94209C7.96209 7.92317 4.74155 8.7529 4.13777 12.1215L2.51615 21.3816C2.37807 22.1791 2.54842 22.9994 2.99268 23.676C3.43693 24.3526 4.12185 24.835 4.90858 25.0253L8.14804 25.8032C8.18998 25.8133 8.23299 25.8184 8.27615 25.8183Z" fill="white"/>
<path d="M12.6876 8.25077H17.3459C17.4893 8.25077 17.6268 8.19382 17.7282 8.09245C17.8295 7.99108 17.8865 7.85359 17.8865 7.71023C17.8865 7.56687 17.8295 7.42938 17.7282 7.32801C17.6268 7.22664 17.4893 7.16969 17.3459 7.16969H13.2281V5.71023H17.3459C17.4893 5.71023 17.6268 5.65328 17.7282 5.55191C17.8295 5.45054 17.8865 5.31305 17.8865 5.16969C17.8865 5.02633 17.8295 4.88884 17.7282 4.78747C17.6268 4.6861 17.4893 4.62915 17.3459 4.62915H12.6876C12.5442 4.62915 12.4067 4.6861 12.3053 4.78747C12.204 4.88884 12.147 5.02633 12.147 5.16969V7.71023C12.147 7.85359 12.204 7.99108 12.3053 8.09245C12.4067 8.19382 12.5442 8.25077 12.6876 8.25077Z" fill="white"/>
<path d="M29.842 24.3918C29.9525 24.3919 30.0603 24.3582 30.151 24.2951C30.2418 24.2321 30.311 24.1427 30.3494 24.0391C30.3878 23.9356 30.3935 23.8227 30.3658 23.7158C30.3381 23.6088 30.2783 23.5129 30.1945 23.441L24.8312 18.8351C24.778 18.785 24.7151 18.7462 24.6465 18.721C24.5778 18.6959 24.5048 18.685 24.4318 18.6889C24.3588 18.6928 24.2873 18.7115 24.2218 18.7438C24.1562 18.7761 24.0978 18.8214 24.0503 18.8769C24.0027 18.9324 23.9669 18.997 23.945 19.0668C23.9231 19.1365 23.9156 19.21 23.9229 19.2827C23.9302 19.3555 23.9522 19.426 23.9875 19.49C24.0229 19.554 24.0708 19.6101 24.1285 19.6551L29.4918 24.2615C29.5892 24.3455 29.7134 24.3917 29.842 24.3918Z" fill="white"/>
<path d="M29.9399 27.5838C30.0833 27.5838 30.2208 27.5268 30.3221 27.4255C30.4235 27.3241 30.4805 27.1866 30.4805 27.0432V26.4459C30.4805 26.3026 30.4235 26.1651 30.3221 26.0637C30.2208 25.9623 30.0833 25.9054 29.9399 25.9054C29.7966 25.9054 29.6591 25.9623 29.5577 26.0637C29.4563 26.1651 29.3994 26.3026 29.3994 26.4459V27.0405C29.399 27.1117 29.4128 27.1823 29.4398 27.2482C29.4668 27.3141 29.5065 27.374 29.5567 27.4245C29.607 27.475 29.6667 27.515 29.7324 27.5424C29.7982 27.5697 29.8687 27.5838 29.9399 27.5838Z" fill="white"/>
<path d="M29.9399 30.2724C30.0833 30.2724 30.2208 30.2154 30.3221 30.1141C30.4235 30.0127 30.4805 29.8752 30.4805 29.7318V29.1345C30.4805 28.9912 30.4235 28.8537 30.3221 28.7523C30.2208 28.6509 30.0833 28.594 29.9399 28.594C29.7966 28.594 29.6591 28.6509 29.5577 28.7523C29.4563 28.8537 29.3994 28.9912 29.3994 29.1345V29.7318C29.3994 29.8752 29.4563 30.0127 29.5577 30.1141C29.6591 30.2154 29.7966 30.2724 29.9399 30.2724Z" fill="white"/>
<path d="M29.9399 32.961C30.0833 32.961 30.2208 32.9041 30.3221 32.8027C30.4235 32.7013 30.4805 32.5638 30.4805 32.4205V31.8226C30.4805 31.6793 30.4235 31.5418 30.3221 31.4404C30.2208 31.3391 30.0833 31.2821 29.9399 31.2821C29.7966 31.2821 29.6591 31.3391 29.5577 31.4404C29.4563 31.5418 29.3994 31.6793 29.3994 31.8226V32.4205C29.3994 32.5638 29.4563 32.7013 29.5577 32.8027C29.6591 32.9041 29.7966 32.961 29.9399 32.961Z" fill="white"/>
<path d="M29.9399 35.6492C30.0833 35.6492 30.2208 35.5922 30.3221 35.4909C30.4235 35.3895 30.4805 35.252 30.4805 35.1086V34.5141C30.4805 34.3707 30.4235 34.2332 30.3221 34.1318C30.2208 34.0305 30.0833 33.9735 29.9399 33.9735C29.7966 33.9735 29.6591 34.0305 29.5577 34.1318C29.4563 34.2332 29.3994 34.3707 29.3994 34.5141V35.1086C29.3994 35.252 29.4563 35.3895 29.5577 35.4909C29.6591 35.5922 29.7966 35.6492 29.9399 35.6492Z" fill="white"/>
<path d="M32.5352 26.3983C32.6401 26.3982 32.7428 26.3676 32.8306 26.3101C32.9184 26.2527 32.9876 26.1709 33.0297 26.0748C33.0719 25.9787 33.0851 25.8724 33.0678 25.7688C33.0506 25.6653 33.0035 25.5691 32.9325 25.4918L32.5282 25.0518C32.4312 24.9463 32.2962 24.8835 32.153 24.8774C32.0097 24.8714 31.87 24.9224 31.7644 25.0194C31.6588 25.1164 31.5961 25.2513 31.59 25.3946C31.5839 25.5378 31.635 25.6776 31.7319 25.7832L32.1363 26.2232C32.187 26.2785 32.2486 26.3226 32.3173 26.3527C32.386 26.3829 32.4602 26.3984 32.5352 26.3983Z" fill="white"/>
<path d="M34.3535 28.3784C34.4585 28.3784 34.5612 28.3478 34.6491 28.2904C34.737 28.233 34.8063 28.1512 34.8485 28.0551C34.8907 27.9589 34.9039 27.8526 34.8867 27.749C34.8694 27.6455 34.8224 27.5492 34.7513 27.4719L34.347 27.0319C34.2989 26.9797 34.2411 26.9374 34.1767 26.9075C34.1123 26.8776 34.0426 26.8607 33.9717 26.8578C33.9008 26.8548 33.83 26.8658 33.7633 26.8903C33.6967 26.9147 33.6355 26.952 33.5832 27C33.531 27.0481 33.4887 27.1059 33.4588 27.1703C33.429 27.2347 33.4121 27.3044 33.4091 27.3753C33.4061 27.4462 33.4172 27.517 33.4416 27.5837C33.466 27.6503 33.5033 27.7115 33.5513 27.7638L33.9557 28.2038C34.0063 28.2588 34.0678 28.3028 34.1363 28.3328C34.2047 28.3629 34.2787 28.3784 34.3535 28.3784Z" fill="white"/>
<path d="M36.1713 30.3589C36.2763 30.359 36.3791 30.3285 36.4671 30.2711C36.5551 30.2137 36.6245 30.132 36.6667 30.0358C36.709 29.9397 36.7223 29.8333 36.7051 29.7297C36.6878 29.626 36.6408 29.5297 36.5697 29.4524L36.1654 29.0129C36.1184 28.957 36.0607 28.9111 35.9955 28.8781C35.9304 28.8451 35.8593 28.8256 35.7864 28.8209C35.7135 28.8161 35.6405 28.8261 35.5716 28.8504C35.5027 28.8747 35.4395 28.9126 35.3857 28.962C35.3319 29.0114 35.2886 29.0711 35.2586 29.1377C35.2285 29.2042 35.2122 29.2762 35.2107 29.3492C35.2092 29.4222 35.2226 29.4948 35.2499 29.5625C35.2772 29.6302 35.318 29.6917 35.3697 29.7432L35.7735 30.1832C35.824 30.2384 35.8855 30.2826 35.9539 30.3128C36.0224 30.3431 36.0964 30.3587 36.1713 30.3589Z" fill="white"/>
<path d="M37.9897 32.3379C38.0946 32.3379 38.1973 32.3073 38.2851 32.25C38.373 32.1926 38.4423 32.111 38.4845 32.0149C38.5268 31.9188 38.5402 31.8126 38.523 31.7091C38.5059 31.6055 38.459 31.5092 38.3881 31.4319L37.9843 30.9919C37.8873 30.8863 37.7523 30.8236 37.6091 30.8175C37.4659 30.8114 37.3261 30.8625 37.2205 30.9595C37.1149 31.0565 37.0522 31.1914 37.0461 31.3346C37.04 31.4779 37.0911 31.6177 37.1881 31.7233L37.5918 32.1633C37.6425 32.2183 37.704 32.2622 37.7724 32.2923C37.8409 32.3223 37.9149 32.3379 37.9897 32.3379Z" fill="white"/>
</svg>
