<svg width="41" height="42" viewBox="0 0 41 42" fill="none" xmlns="http://www.w3.org/2000/svg">
<mask id="mask0_1534_7664" style="mask-type:luminance" maskUnits="userSpaceOnUse" x="0" y="0" width="41" height="42">
<path d="M0.477051 0.324097H41V41.365H0.477051V0.324097Z" fill="white"/>
</mask>
<g mask="url(#mask0_1534_7664)">
<mask id="mask1_1534_7664" style="mask-type:luminance" maskUnits="userSpaceOnUse" x="0" y="0" width="41" height="42">
<path d="M37.576 10.1791C33.4804 3.88108 27.6172 0.535534 20.0717 0.324646C20.2994 0.5842 20.5151 0.85511 20.7163 1.13738C20.7163 1.13738 24.9659 1.97282 26.3221 2.45624C32.8775 4.79439 36.4593 10.2596 37.4413 17.1286C37.9312 20.5547 37.2542 23.7802 35.3438 26.7338C34.6446 27.8147 33.6745 28.2727 32.4914 28.4344C31.6754 28.5463 30.854 28.4809 30.0337 28.4398C27.3338 28.3003 24.7653 28.8351 22.3136 29.9555C20.8742 30.6135 19.385 31.0472 17.7839 31.0537C16.5975 31.0651 15.4279 30.7704 14.3886 30.1993C13.8716 29.9182 13.2033 29.5997 12.7718 30.0387C12.2819 30.5357 12.7539 31.1597 13.0405 31.6837C13.1141 31.808 13.2 31.9254 13.2957 32.033C14.7152 33.7352 16.5115 34.416 18.7031 34.0299C19.7473 33.8461 20.7828 33.5963 21.8556 33.652C22.5196 33.686 23.1188 33.8293 23.321 34.5734C23.4951 35.2169 23.1507 35.8322 22.3904 36.1788C20.6622 36.9667 18.8421 36.9569 17.0625 36.5152C14.8633 35.9685 12.9253 34.8318 11.1177 33.4703C9.70903 32.411 8.23173 31.4533 6.64088 30.6903C5.0987 29.9517 3.55759 29.193 1.83697 28.9513C1.38977 28.8891 0.862555 28.7999 0.641934 29.3444C0.436995 29.8489 0.783067 30.2237 1.12427 30.5368C1.71584 31.0807 2.44854 31.4084 3.14771 31.7853C3.91232 32.1974 4.68125 32.5986 5.40584 33.0885C7.78454 34.6983 9.95128 36.5865 12.2911 38.2461C14.7736 40.0051 17.4318 41.2888 20.5514 41.3385C27.8275 41.4559 33.5064 38.4256 37.5489 32.4504C42.0798 25.7539 41.9689 16.9377 37.5733 10.1791" fill="white"/>
</mask>
<g mask="url(#mask1_1534_7664)">
<mask id="mask2_1534_7664" style="mask-type:luminance" maskUnits="userSpaceOnUse" x="0" y="0" width="42" height="42">
<path d="M41.0133 0.297546H0.453613V41.4109H41.0133V0.297546Z" fill="white"/>
</mask>
<g mask="url(#mask2_1534_7664)">
<mask id="mask3_1534_7664" style="mask-type:luminance" maskUnits="userSpaceOnUse" x="0" y="0" width="41" height="42">
<path d="M0.477051 0.323975H41V41.3649H0.477051V0.323975Z" fill="white"/>
</mask>
<g mask="url(#mask3_1534_7664)">
<mask id="mask4_1534_7664" style="mask-type:luminance" maskUnits="userSpaceOnUse" x="0" y="0" width="41" height="42">
<path d="M37.576 10.1789C33.4804 3.88096 27.6172 0.535412 20.0717 0.324524C20.2994 0.584078 20.5151 0.854988 20.7163 1.13725C20.7163 1.13725 24.9659 1.97269 26.3221 2.45611C32.8775 4.79426 36.4593 10.2595 37.4413 17.1285C37.9312 20.5546 37.2542 23.7801 35.3438 26.7336C34.6446 27.8146 33.6745 28.2726 32.4914 28.4343C31.6754 28.5462 30.854 28.4808 30.0337 28.4397C27.3338 28.3001 24.7653 28.8349 22.3136 29.9553C20.8742 30.6134 19.385 31.0471 17.7839 31.0536C16.5975 31.0649 15.4279 30.7702 14.3886 30.1992C13.8716 29.918 13.2033 29.5995 12.7718 30.0386C12.2819 30.5356 12.7539 31.1596 13.0405 31.6835C13.1141 31.8079 13.2 31.9253 13.2957 32.0329C14.7152 33.7351 16.5115 34.4159 18.7031 34.0298C19.7473 33.846 20.7828 33.5961 21.8556 33.6518C22.5196 33.6859 23.1188 33.8292 23.321 34.5732C23.4951 35.2167 23.1507 35.8321 22.3904 36.1787C20.6622 36.9666 18.8421 36.9568 17.0625 36.515C14.8633 35.9684 12.9253 34.8317 11.1177 33.4701C9.70903 32.4108 8.23173 31.4532 6.64088 30.6902C5.0987 29.9516 3.55759 29.1929 1.83697 28.9512C1.38977 28.889 0.862555 28.7998 0.641934 29.3443C0.436995 29.8488 0.783067 30.2236 1.12427 30.5366C1.71584 31.0806 2.44854 31.4083 3.14771 31.7852C3.91232 32.1972 4.68125 32.5985 5.40584 33.0884C7.78454 34.6982 9.95128 36.5864 12.2911 38.2459C14.7736 40.005 17.4318 41.2887 20.5514 41.3384C27.8275 41.4558 33.5064 38.4255 37.5489 32.4503C42.0798 25.7538 41.9689 16.9376 37.5733 10.1789" fill="white"/>
</mask>
<g mask="url(#mask4_1534_7664)">
<path d="M41.0133 0.297424H0.453613V41.4108H41.0133V0.297424Z" fill="white"/>
</g>
</g>
</g>
</g>
</g>
<mask id="mask5_1534_7664" style="mask-type:luminance" maskUnits="userSpaceOnUse" x="8" y="2" width="24" height="28">
<path d="M8.56104 2.92773H31.258V29.9214H8.56104V2.92773Z" fill="white"/>
</mask>
<g mask="url(#mask5_1534_7664)">
<mask id="mask6_1534_7664" style="mask-type:luminance" maskUnits="userSpaceOnUse" x="8" y="2" width="24" height="28">
<path d="M13.1669 2.93634C12.6727 5.05333 12.2931 6.99999 12.2763 9.00937C12.2444 12.8719 13.4697 16.1747 16.3681 18.8113C16.839 19.2401 17.1143 19.1871 17.5501 18.7875C19.8153 16.703 22.3308 15.031 25.3059 14.1074C26.926 13.6051 28.9235 13.4321 31.2086 13.7235C29.7621 14.4459 28.3914 15.1029 27.1304 15.9638C23.9973 18.1051 21.8647 20.9245 21.1487 24.7059C20.8903 26.0475 20.8189 27.4193 20.9351 28.782C20.9714 29.1897 20.8346 29.4055 20.4452 29.5147C18.4829 30.0646 16.5735 30.1652 14.7037 29.1194C13.9867 28.7187 13.1534 28.5268 12.3563 29.001C11.994 29.2167 11.8989 28.9761 11.7637 28.7436C10.5416 26.6493 9.69752 24.409 9.16868 22.046C8.30945 18.2095 8.44301 14.3984 9.46338 10.6116C10.175 7.96953 11.3403 5.53621 12.8857 3.28133C12.9355 3.20725 12.9976 3.1429 13.1691 2.93634" fill="white"/>
</mask>
<g mask="url(#mask6_1534_7664)">
<mask id="mask7_1534_7664" style="mask-type:luminance" maskUnits="userSpaceOnUse" x="8" y="2" width="24" height="28">
<path d="M31.3232 2.92767H8.48242V29.9213H31.3232V2.92767Z" fill="white"/>
</mask>
<g mask="url(#mask7_1534_7664)">
<mask id="mask8_1534_7664" style="mask-type:luminance" maskUnits="userSpaceOnUse" x="8" y="2" width="24" height="28">
<path d="M8.56104 2.92761H31.218V29.9212H8.56104V2.92761Z" fill="white"/>
</mask>
<g mask="url(#mask8_1534_7664)">
<mask id="mask9_1534_7664" style="mask-type:luminance" maskUnits="userSpaceOnUse" x="8" y="2" width="24" height="28">
<path d="M13.1669 2.93628C12.6727 5.05327 12.2931 6.99992 12.2763 9.00931C12.2444 12.8718 13.4697 16.1746 16.3681 18.8113C16.839 19.2401 17.1143 19.1871 17.5501 18.7875C19.8153 16.7029 22.3308 15.031 25.3059 14.1074C26.926 13.605 28.9235 13.432 31.2086 13.7235C29.7621 14.4459 28.3914 15.1029 27.1304 15.9637C23.9973 18.1051 21.8647 20.9245 21.1487 24.7058C20.8903 26.0474 20.8189 27.4193 20.9351 28.7819C20.9714 29.1896 20.8346 29.4054 20.4452 29.5146C18.4829 30.0646 16.5735 30.1651 14.7037 29.1194C13.9867 28.7187 13.1534 28.5267 12.3563 29.0009C11.994 29.2167 11.8989 28.9761 11.7637 28.7435C10.5416 26.6493 9.69752 24.409 9.16868 22.046C8.30945 18.2094 8.44301 14.3983 9.46338 10.6115C10.175 7.96947 11.3403 5.53615 12.8857 3.28127C12.9355 3.20719 12.9976 3.14284 13.1691 2.93628" fill="white"/>
</mask>
<g mask="url(#mask9_1534_7664)">
<path d="M31.3232 2.92767H8.48242V29.9213H31.3232V2.92767Z" fill="#6ACEE5"/>
</g>
</g>
</g>
</g>
</g>
<mask id="mask10_1534_7664" style="mask-type:luminance" maskUnits="userSpaceOnUse" x="14" y="7" width="9" height="9">
<path d="M14.1582 7.57855H22.0341V15.4549H14.1582V7.57855Z" fill="white"/>
</mask>
<g mask="url(#mask10_1534_7664)">
<mask id="mask11_1534_7664" style="mask-type:luminance" maskUnits="userSpaceOnUse" x="14" y="7" width="8" height="9">
<path d="M18.1093 15.4003C15.9004 15.4046 14.2533 13.7267 14.2181 11.4367C14.1879 9.45759 16.0426 7.62395 18.0741 7.62395C20.2263 7.61367 21.9794 9.35052 21.9896 11.5037V11.5151C21.9918 13.7164 20.3128 15.3987 18.1093 15.4025" fill="white"/>
</mask>
<g mask="url(#mask11_1534_7664)">
<mask id="mask12_1534_7664" style="mask-type:luminance" maskUnits="userSpaceOnUse" x="14" y="7" width="9" height="9">
<path d="M22.0487 7.49585H14.1582V15.5247H22.0487V7.49585Z" fill="white"/>
</mask>
<g mask="url(#mask12_1534_7664)">
<mask id="mask13_1534_7664" style="mask-type:luminance" maskUnits="userSpaceOnUse" x="14" y="7" width="9" height="9">
<path d="M14.1826 7.60132H22.0195V15.4052H14.1826V7.60132Z" fill="white"/>
</mask>
<g mask="url(#mask13_1534_7664)">
<mask id="mask14_1534_7664" style="mask-type:luminance" maskUnits="userSpaceOnUse" x="14" y="7" width="8" height="9">
<path d="M18.1093 15.4004C15.9004 15.4047 14.2533 13.7268 14.2181 11.4368C14.1879 9.45771 16.0426 7.62407 18.0741 7.62407C20.2263 7.61379 21.9794 9.35065 21.9896 11.5039V11.5152C21.9918 13.7166 20.3128 15.3988 18.1093 15.4026" fill="white"/>
</mask>
<g mask="url(#mask14_1534_7664)">
<path d="M22.0487 7.49603H14.1582V15.5249H22.0487V7.49603Z" fill="#6ACEE5"/>
</g>
</g>
</g>
</g>
</g>
<mask id="mask15_1534_7664" style="mask-type:luminance" maskUnits="userSpaceOnUse" x="2" y="32" width="18" height="10">
<path d="M2.66846 32.5558H19.6952V41.6759H2.66846V32.5558Z" fill="white"/>
</mask>
<g mask="url(#mask15_1534_7664)">
<mask id="mask16_1534_7664" style="mask-type:luminance" maskUnits="userSpaceOnUse" x="2" y="32" width="18" height="10">
<path d="M19.6534 41.5862C17.6186 41.9193 15.7887 41.2709 14.0135 40.423C11.8549 39.3924 9.86983 38.0697 7.89397 36.732C6.54915 35.8219 5.18974 34.9345 3.73353 34.2029C3.22848 33.9488 2.49254 33.6216 2.82077 32.9576C3.15062 32.2882 3.9163 32.6526 4.41648 32.883C5.87269 33.5535 7.06502 34.6306 8.32872 35.5937C9.24906 36.294 10.157 37.011 11.0789 37.7107C13.6399 39.653 16.35 41.2655 19.6556 41.5862" fill="white"/>
</mask>
<g mask="url(#mask16_1534_7664)">
<mask id="mask17_1534_7664" style="mask-type:luminance" maskUnits="userSpaceOnUse" x="2" y="32" width="18" height="10">
<path d="M19.6952 32.5515H2.66846V41.6878H19.6952V32.5515Z" fill="white"/>
</mask>
<g mask="url(#mask17_1534_7664)">
<mask id="mask18_1534_7664" style="mask-type:luminance" maskUnits="userSpaceOnUse" x="2" y="32" width="18" height="10">
<path d="M2.66846 32.5562H19.6617V41.6763H2.66846V32.5562Z" fill="white"/>
</mask>
<g mask="url(#mask18_1534_7664)">
<mask id="mask19_1534_7664" style="mask-type:luminance" maskUnits="userSpaceOnUse" x="2" y="32" width="18" height="10">
<path d="M19.6534 41.5862C17.6186 41.9193 15.7887 41.271 14.0135 40.4231C11.8549 39.3924 9.86983 38.0698 7.89397 36.732C6.54915 35.8219 5.18974 34.9346 3.73353 34.203C3.22848 33.9488 2.49254 33.6217 2.82077 32.9577C3.15062 32.2882 3.9163 32.6527 4.41648 32.883C5.87269 33.5536 7.06502 34.6307 8.32872 35.5938C9.24906 36.294 10.157 37.011 11.0789 37.7107C13.6399 39.6531 16.35 41.2656 19.6556 41.5862" fill="white"/>
</mask>
<g mask="url(#mask19_1534_7664)">
<path d="M19.6952 32.5516H2.66846V41.6879H19.6952V32.5516Z" fill="white"/>
</g>
</g>
</g>
</g>
</g>
<mask id="mask20_1534_7664" style="mask-type:luminance" maskUnits="userSpaceOnUse" x="4" y="35" width="12" height="7">
<path d="M4.00098 35.4585H15.2656V41.2612H4.00098V35.4585Z" fill="white"/>
</mask>
<g mask="url(#mask20_1534_7664)">
<mask id="mask21_1534_7664" style="mask-type:luminance" maskUnits="userSpaceOnUse" x="4" y="35" width="12" height="7">
<path d="M15.2358 41.1773C14.6091 41.3665 14.0705 41.1502 13.533 40.9794C11.661 40.3846 9.97278 39.3934 8.24621 38.4855C7.20204 37.9366 6.16437 37.3743 5.05802 36.952C4.87741 36.8854 4.70437 36.7973 4.54432 36.6902C4.26638 36.4983 3.94031 36.2906 4.08901 35.8851C4.24961 35.446 4.64111 35.4595 5.00502 35.5612C5.6777 35.745 6.3201 36.0251 6.91329 36.3923C8.89131 37.6295 10.8423 38.91 12.8419 40.1099C13.586 40.556 14.435 40.8269 15.2358 41.1773Z" fill="white"/>
</mask>
<g mask="url(#mask21_1534_7664)">
<mask id="mask22_1534_7664" style="mask-type:luminance" maskUnits="userSpaceOnUse" x="3" y="35" width="13" height="7">
<path d="M15.2657 35.4584H3.91455V41.2724H15.2657V35.4584Z" fill="white"/>
</mask>
<g mask="url(#mask22_1534_7664)">
<mask id="mask23_1534_7664" style="mask-type:luminance" maskUnits="userSpaceOnUse" x="4" y="35" width="12" height="7">
<path d="M4.00098 35.4584H15.2456V41.261H4.00098V35.4584Z" fill="white"/>
</mask>
<g mask="url(#mask23_1534_7664)">
<mask id="mask24_1534_7664" style="mask-type:luminance" maskUnits="userSpaceOnUse" x="4" y="35" width="12" height="7">
<path d="M15.2358 41.1772C14.6091 41.3665 14.0705 41.1502 13.533 40.9793C11.661 40.3845 9.97278 39.3933 8.24621 38.4854C7.20204 37.9366 6.16437 37.3742 5.05802 36.9519C4.87741 36.8854 4.70437 36.7972 4.54432 36.6902C4.26638 36.4982 3.94031 36.2906 4.08901 35.885C4.24961 35.4459 4.64111 35.4595 5.00502 35.5611C5.6777 35.745 6.3201 36.0251 6.91329 36.3922C8.89131 37.6294 10.8423 38.9099 12.8419 40.1098C13.586 40.5559 14.435 40.8268 15.2358 41.1772Z" fill="white"/>
</mask>
<g mask="url(#mask24_1534_7664)">
<path d="M15.2657 35.4583H3.91455V41.2723H15.2657V35.4583Z" fill="white"/>
</g>
</g>
</g>
</g>
</g>
</svg>
