<svg width="96" height="38" viewBox="0 0 96 38" fill="none" xmlns="http://www.w3.org/2000/svg">
<path d="M9.01962 27.9456V33.4267H7.40019V20.6848H13.2551C14.6076 20.6848 15.616 21.017 16.2804 21.6814C16.8617 22.2628 17.1524 23.0695 17.1524 24.1017C17.1524 24.8254 16.9922 25.4245 16.6719 25.8991C16.3634 26.3736 15.8473 26.7889 15.1236 27.1448C15.705 27.3702 16.1321 27.6727 16.4049 28.0524C16.6778 28.4439 16.832 29.2447 16.8676 30.4548C16.8914 31.3446 16.9448 31.9438 17.0278 32.2522C17.1227 32.5488 17.3244 32.8039 17.6329 33.0174V33.4267H15.6753C15.4143 32.881 15.2838 32.3056 15.2838 31.7005L15.3016 29.7074C15.3016 29.5769 15.2482 29.3752 15.1414 29.1023C15.0347 28.8295 14.9338 28.6337 14.8389 28.5151C14.5186 28.1354 13.9728 27.9456 13.2017 27.9456H9.01962ZM9.01962 26.5041H12.9525C14.6253 26.5041 15.4618 25.7745 15.4618 24.3152C15.4618 22.856 14.6253 22.1263 12.9525 22.1263H9.01962V26.5041ZM27.7407 32.1988V33.3734C27.3373 33.5157 27.0229 33.5869 26.7975 33.5869C25.8484 33.5869 25.3323 33.1539 25.2492 32.2878C24.5967 33.1776 23.5586 33.6225 22.135 33.6225C21.1502 33.6225 20.385 33.3496 19.8393 32.8039C19.3647 32.3293 19.1274 31.7183 19.1274 30.9709C19.1274 30.1167 19.43 29.4583 20.035 28.9956C20.3791 28.7345 21.0969 28.4795 22.1883 28.2303L25.1781 27.5541L25.1959 26.7889C25.1959 25.8753 24.5077 25.4186 23.1315 25.4186C21.8146 25.4186 21.1087 25.9524 21.0138 27.0202H19.5367C19.5723 26.2135 19.774 25.5965 20.1418 25.1694C20.7706 24.4457 21.7909 24.0839 23.2027 24.0839C25.4925 24.0839 26.6373 24.9144 26.6373 26.5753V31.6827C26.6373 32.1336 26.8331 32.359 27.2246 32.359C27.2721 32.359 27.3966 32.3234 27.5983 32.2522C27.6695 32.2285 27.717 32.2107 27.7407 32.1988ZM25.1959 28.7464L22.8468 29.3515C22.0045 29.565 21.4231 29.7845 21.1028 30.0099C20.7943 30.2353 20.6401 30.5497 20.6401 30.9531C20.6401 31.8904 21.2452 32.359 22.4553 32.359C23.3095 32.359 24.0332 32.0802 24.6264 31.5226C25.006 31.1785 25.1959 30.787 25.1959 30.348V28.7464ZM29.3405 20.6848H30.782V25.5609C31.2209 25.0152 31.6599 24.6355 32.0989 24.422C32.5378 24.1966 33.0836 24.0839 33.7361 24.0839C34.6259 24.0839 35.3259 24.3093 35.836 24.7601C36.3462 25.1991 36.6013 25.8041 36.6013 26.5753V33.4267H35.1598V27.1626C35.1598 26.5219 34.964 26.0533 34.5725 25.7567C34.2047 25.4838 33.7717 25.3474 33.2734 25.3474C32.526 25.3474 31.9209 25.6262 31.4582 26.1838C31.0074 26.7414 30.782 27.4829 30.782 28.4083V33.4267H29.3405V20.6848ZM39.0553 24.2796H40.4078V25.5965C41.1196 24.5881 42.0569 24.0839 43.2195 24.0839C44.3466 24.0839 45.1652 24.5347 45.6754 25.4364C46.1143 24.9262 46.5355 24.5762 46.9389 24.3864C47.3541 24.1847 47.8643 24.0839 48.4693 24.0839C50.2489 24.0839 51.1387 24.9203 51.1387 26.5931V33.4267H49.6795V27.1626C49.6795 25.9524 49.11 25.3474 47.9711 25.3474C47.3779 25.3474 46.8736 25.5787 46.4584 26.0414C46.0432 26.5041 45.8355 27.0558 45.8355 27.6965V33.4267H44.3763V27.1626C44.3763 25.9524 43.8127 25.3474 42.6857 25.3474C42.0806 25.3474 41.5645 25.5787 41.1374 26.0414C40.7222 26.4923 40.5145 27.0439 40.5145 27.6965V33.4267H39.0553V24.2796ZM61.7337 32.1988V33.3734C61.3303 33.5157 61.0159 33.5869 60.7905 33.5869C59.8414 33.5869 59.3253 33.1539 59.2423 32.2878C58.5898 33.1776 57.5517 33.6225 56.128 33.6225C55.1433 33.6225 54.3781 33.3496 53.8323 32.8039C53.3578 32.3293 53.1205 31.7183 53.1205 30.9709C53.1205 30.1167 53.423 29.4583 54.0281 28.9956C54.3721 28.7345 55.0899 28.4795 56.1814 28.2303L59.1711 27.5541L59.1889 26.7889C59.1889 25.8753 58.5008 25.4186 57.1246 25.4186C55.8077 25.4186 55.1018 25.9524 55.0068 27.0202H53.5298C53.5654 26.2135 53.7671 25.5965 54.1348 25.1694C54.7636 24.4457 55.7839 24.0839 57.1957 24.0839C59.4855 24.0839 60.6304 24.9144 60.6304 26.5753V31.6827C60.6304 32.1336 60.8261 32.359 61.2176 32.359C61.2651 32.359 61.3897 32.3234 61.5913 32.2522C61.6625 32.2285 61.71 32.2107 61.7337 32.1988ZM59.1889 28.7464L56.8398 29.3515C55.9975 29.565 55.4162 29.7845 55.0958 30.0099C54.7874 30.2353 54.6331 30.5497 54.6331 30.9531C54.6331 31.8904 55.2382 32.359 56.4483 32.359C57.3025 32.359 58.0262 32.0802 58.6194 31.5226C58.9991 31.1785 59.1889 30.787 59.1889 30.348V28.7464Z" fill="#020A4C"/>
<path d="M58.8747 20.8157C57.9807 20.8234 57.1043 20.5683 56.354 20.0822L57.4172 18.4848C57.9422 18.8041 58.5574 18.9426 59.1686 18.8791L59.3142 18.8676C59.6297 18.8744 59.9402 18.7888 60.2075 18.6212C60.4747 18.4536 60.6871 18.2114 60.8183 17.9245C61.0807 17.4412 61.2128 16.898 61.2017 16.3482V9.10255H63.1185V16.3533C63.1292 17.2379 62.909 18.1101 62.4796 18.8835C62.1821 19.45 61.7375 19.9259 61.1925 20.2611C60.6476 20.5964 60.0224 20.7787 59.3826 20.7889C59.214 20.8081 59.0444 20.8171 58.8747 20.8157Z" fill="#020A4C"/>
<path d="M57.5734 13.193C57.3306 13.0141 51.6184 8.86091 47.5803 8.86091C43.8424 8.86091 42.8521 11.455 42.8521 12.8352L44.7689 12.8415C44.7817 12.4965 44.9542 10.7777 47.5803 10.7777C50.0594 10.7777 53.5736 12.8415 55.3435 13.9853C53.5608 15.1993 49.8422 17.4356 46.3216 17.6273C43.5574 17.7824 40.7869 17.7931 38.0216 17.6592C37.5243 17.6448 37.0404 17.4946 36.6223 17.2247C36.3317 17.0377 36.0954 16.7774 35.9373 16.4701C35.7791 16.1628 35.7047 15.8192 35.7214 15.474C35.7214 13.2441 34.9803 11.4422 33.6385 10.3944C32.7759 9.72348 31.2552 9.0462 28.8783 9.64042C26.5206 10.2283 25.6836 12.1131 24.9424 13.768C23.9904 15.9085 23.1661 17.7487 19.3772 17.7487H12.9686C12.3168 17.7487 11.2178 16.95 11.2178 13.9661V7.92804L10.3105 6.97602C10.0869 6.96324 4.8092 6.69488 2.2598 9.33373C1.74489 9.86786 1.35689 10.5111 1.1246 11.2157C0.892313 11.9203 0.821718 12.6682 0.918027 13.4038C0.942137 13.9943 1.08279 14.5742 1.33191 15.1101C1.58104 15.646 1.93368 16.1274 2.36958 16.5265C2.80547 16.9255 3.31599 17.2345 3.87175 17.4354C4.42751 17.6364 5.01755 17.7255 5.60787 17.6975H5.62706C7.05962 17.6804 8.44002 17.1576 9.52462 16.2216C9.70271 17.1852 10.1657 18.0732 10.8536 18.771C11.4144 19.3198 12.159 19.6408 12.943 19.6719C12.9601 19.671 12.9772 19.6689 12.9941 19.6655H19.3772C24.4121 19.6655 25.6772 16.8286 26.6931 14.5475C27.4343 12.8863 27.9582 11.8448 29.3384 11.4998C30.6482 11.1739 31.6961 11.3081 32.4564 11.9023C33.3254 12.5796 33.8046 13.8511 33.8046 15.474C33.8032 15.6277 33.8117 15.7814 33.8301 15.934C32.9676 17.0586 32.0475 17.672 31.0827 17.7614C30.0403 17.7771 29.0324 17.3877 28.2713 16.6752L26.9231 18.0362C27.9819 19.0411 29.3687 19.6289 30.8271 19.6911C30.9613 19.6911 31.0954 19.6847 31.236 19.6719C32.5377 19.53 33.7424 18.9163 34.6225 17.9467C34.8812 18.2815 35.1918 18.5727 35.5425 18.8093C36.25 19.2771 37.072 19.5423 37.9194 19.576C40.7529 19.7099 43.5914 19.6992 46.4238 19.5441C51.874 19.2502 57.3753 14.899 57.6054 14.7137L57.5734 13.193ZM9.301 12.7904C9.1221 14.6562 7.29471 15.7743 5.62067 15.7807H5.60787C5.25556 15.8065 4.9017 15.76 4.56803 15.644C4.23435 15.528 3.92792 15.345 3.6676 15.1062C3.40727 14.8675 3.19854 14.5779 3.05423 14.2555C2.90992 13.9331 2.8331 13.5845 2.82847 13.2313C2.76061 12.7712 2.79777 12.3016 2.9372 11.8579C3.07662 11.4142 3.3147 11.0078 3.63355 10.6691C4.94978 9.30178 7.65891 8.93119 9.301 8.88008V12.7904Z" fill="#020A4C"/>
<path d="M81.7765 22.5511C81.773 22.5172 81.7677 22.4835 81.7605 22.4501C81.7686 22.4833 81.774 22.5171 81.7765 22.5511Z" fill="#020A4C"/>
<path d="M81.7765 22.5511C81.773 22.5172 81.7677 22.4835 81.7605 22.4501C81.7686 22.4833 81.774 22.5171 81.7765 22.5511Z" fill="#020A4C"/>
<path d="M90.6803 18.6535C90.6803 18.6535 86.3137 23.4622 84.8237 26.1388C83.3337 28.8153 79.6265 29.89 77.0848 30.5897C74.543 31.2893 74.5711 33.0247 74.5711 33.0247L74.4197 35.3633C72.7467 35.9352 70.9504 36.0456 69.22 35.6827L68.972 35.6361L69.6378 32.8017C69.9658 31.371 70.5749 30.0198 71.4296 28.8265C72.2842 27.6332 73.3675 26.6217 74.6165 25.8506C75.055 25.5845 75.5117 25.3496 75.9832 25.1478C76.8592 24.7746 77.6892 24.4283 78.4585 24.1146C78.7224 24.02 79.0201 23.8974 79.3396 23.7581H79.3441C80.7395 23.1466 82.643 22.1275 83.7426 22.0067C83.9807 21.9621 84.2268 21.9943 84.4454 22.0987C84.5143 22.1397 84.5733 22.1953 84.6185 22.2615C84.6636 22.3277 84.6938 22.403 84.7068 22.4821C84.7151 22.5157 84.7207 22.5498 84.7234 22.5843V22.6029C84.8512 24.2565 79.245 27.2282 78.9856 27.3617H78.9805H78.9767C80.9684 26.8635 82.7904 25.8409 84.2531 24.4002C84.2531 24.4002 86.191 22.2827 85.0569 21.6611C85.0185 21.6401 84.9786 21.6222 84.9374 21.6074L84.9278 21.6035C84.8619 21.5782 84.7933 21.5604 84.7234 21.5505C84.7131 21.5483 84.7026 21.5468 84.6921 21.546C84.0378 21.4381 82.4289 21.5409 79.2559 23.6264H79.2514C79.5166 23.4047 85.34 18.458 89.1264 16.7329C89.1264 16.7329 90.6739 16.0076 91.3416 16.669C92.0093 17.3303 90.6803 18.6535 90.6803 18.6535Z" fill="#020A4C"/>
<path d="M74.2918 21.3147C74.2918 21.3147 78.6584 16.5054 80.1484 13.8295C81.6385 11.1536 85.3456 10.0782 87.8874 9.37857C90.4291 8.67892 90.401 6.94355 90.401 6.94355L90.5524 4.605C92.2254 4.03273 94.0217 3.92236 95.7522 4.28553L96.0001 4.33153L95.3343 7.1659C94.9584 8.85345 94.1872 10.4276 93.084 11.7588C91.9808 13.0901 90.5773 14.1403 88.9889 14.823C88.1129 15.1962 87.2829 15.5419 86.5136 15.8556C86.2498 15.9501 85.952 16.0728 85.6325 16.2115L85.628 16.2147C84.2326 16.8261 82.3292 17.8453 81.2295 17.9654C80.9915 18.0105 80.7453 17.9785 80.5267 17.874C80.4578 17.833 80.3988 17.7774 80.3536 17.7112C80.3085 17.645 80.2784 17.5697 80.2654 17.4906C80.2569 17.4571 80.2514 17.4229 80.2487 17.3884V17.3699C80.1209 15.7163 85.7271 12.7452 85.9865 12.611H85.9916H85.9954C84.0038 13.1091 82.1819 14.1315 80.719 15.5719C80.719 15.5719 78.7811 17.69 79.9152 18.3117C79.954 18.3322 79.9942 18.3501 80.0353 18.3654L80.0443 18.3692C80.1103 18.3942 80.1789 18.412 80.2487 18.4222L80.2801 18.4267C80.9343 18.534 82.5432 18.4312 85.7162 16.3463L85.7207 16.3431C85.4555 16.5648 79.6322 21.5122 75.8458 23.2373C75.8458 23.2373 74.2982 23.9619 73.6312 23.3012C72.9641 22.6406 74.2918 21.3147 74.2918 21.3147Z" fill="#6ACEE5"/>
<path d="M6.84587 2.93735C7.4987 2.93735 8.02792 2.40813 8.02792 1.7553C8.02792 1.10247 7.4987 0.573252 6.84587 0.573252C6.19304 0.573252 5.66382 1.10247 5.66382 1.7553C5.66382 2.40813 6.19304 2.93735 6.84587 2.93735Z" fill="#020A4C"/>
<path d="M10.0407 2.93735C10.6935 2.93735 11.2227 2.40813 11.2227 1.7553C11.2227 1.10247 10.6935 0.573252 10.0407 0.573252C9.38787 0.573252 8.85864 1.10247 8.85864 1.7553C8.85864 2.40813 9.38787 2.93735 10.0407 2.93735Z" fill="#020A4C"/>
</svg>
