<svg width="96" height="38" viewBox="0 0 96 38" fill="none" xmlns="http://www.w3.org/2000/svg">
<path d="M9.0195 28.2542V33.7354H7.40007V20.9935H13.2549C14.6074 20.9935 15.6159 21.3256 16.2802 21.99C16.8616 22.5714 17.1522 23.3781 17.1522 24.4103C17.1522 25.134 16.9921 25.7331 16.6718 26.2077C16.3633 26.6822 15.8472 27.0975 15.1235 27.4534C15.7048 27.6788 16.1319 27.9813 16.4048 28.361C16.6777 28.7525 16.8319 29.5533 16.8675 30.7634C16.8912 31.6532 16.9446 32.2524 17.0277 32.5608C17.1226 32.8574 17.3243 33.1125 17.6327 33.326V33.7354H15.6752C15.4142 33.1896 15.2837 32.6142 15.2837 32.0091L15.3015 30.016C15.3015 29.8855 15.2481 29.6838 15.1413 29.4109C15.0345 29.1381 14.9337 28.9423 14.8388 28.8237C14.5184 28.444 13.9727 28.2542 13.2015 28.2542H9.0195ZM9.0195 26.8127H12.9524C14.6252 26.8127 15.4616 26.0831 15.4616 24.6238C15.4616 23.1646 14.6252 22.4349 12.9524 22.4349H9.0195V26.8127ZM27.7406 32.5074V33.682C27.3372 33.8243 27.0228 33.8955 26.7974 33.8955C25.8483 33.8955 25.3322 33.4625 25.2491 32.5964C24.5966 33.4862 23.5585 33.9311 22.1348 33.9311C21.1501 33.9311 20.3849 33.6582 19.8392 33.1125C19.3646 32.6379 19.1273 32.0269 19.1273 31.2795C19.1273 30.4253 19.4299 29.7669 20.0349 29.3042C20.379 29.0432 21.0967 28.7881 22.1882 28.5389L25.1779 27.8627L25.1957 27.0975C25.1957 26.1839 24.5076 25.7272 23.1314 25.7272C21.8145 25.7272 21.1086 26.2611 21.0137 27.3288H19.5366C19.5722 26.5221 19.7739 25.9051 20.1417 25.478C20.7705 24.7543 21.7908 24.3925 23.2026 24.3925C25.4923 24.3925 26.6372 25.223 26.6372 26.8839V31.9913C26.6372 32.4422 26.833 32.6676 27.2245 32.6676C27.2719 32.6676 27.3965 32.632 27.5982 32.5608C27.6694 32.5371 27.7168 32.5193 27.7406 32.5074ZM25.1957 29.055L22.8467 29.6601C22.0043 29.8736 21.423 30.0931 21.1027 30.3185C20.7942 30.5439 20.64 30.8583 20.64 31.2617C20.64 32.199 21.245 32.6676 22.4552 32.6676C23.3094 32.6676 24.0331 32.3888 24.6263 31.8312C25.0059 31.4871 25.1957 31.0956 25.1957 30.6567V29.055ZM29.3404 20.9935H30.7819V25.8695C31.2208 25.3238 31.6598 24.9442 32.0988 24.7306C32.5377 24.5052 33.0835 24.3925 33.736 24.3925C34.6258 24.3925 35.3258 24.6179 35.8359 25.0687C36.3461 25.5077 36.6011 26.1128 36.6011 26.8839V33.7354H35.1597V27.4712C35.1597 26.8305 34.9639 26.3619 34.5724 26.0653C34.2046 25.7924 33.7716 25.656 33.2733 25.656C32.5259 25.656 31.9208 25.9348 31.4581 26.4924C31.0073 27.05 30.7819 27.7915 30.7819 28.7169V33.7354H29.3404V20.9935ZM39.0552 24.5882H40.4077V25.9051C41.1195 24.8967 42.0567 24.3925 43.2194 24.3925C44.3465 24.3925 45.1651 24.8433 45.6753 25.745C46.1142 25.2348 46.5354 24.8848 46.9388 24.695C47.354 24.4933 47.8642 24.3925 48.4692 24.3925C50.2488 24.3925 51.1386 25.2289 51.1386 26.9017V33.7354H49.6793V27.4712C49.6793 26.2611 49.1099 25.656 47.9709 25.656C47.3777 25.656 46.8735 25.8873 46.4583 26.35C46.043 26.8127 45.8354 27.3644 45.8354 28.0051V33.7354H44.3761V27.4712C44.3761 26.2611 43.8126 25.656 42.6855 25.656C42.0805 25.656 41.5644 25.8873 41.1373 26.35C40.722 26.8009 40.5144 27.3525 40.5144 28.0051V33.7354H39.0552V24.5882ZM61.7336 32.5074V33.682C61.3302 33.8243 61.0158 33.8955 60.7904 33.8955C59.8413 33.8955 59.3252 33.4625 59.2422 32.5964C58.5896 33.4862 57.5515 33.9311 56.1279 33.9311C55.1432 33.9311 54.3779 33.6582 53.8322 33.1125C53.3576 32.6379 53.1204 32.0269 53.1204 31.2795C53.1204 30.4253 53.4229 29.7669 54.0279 29.3042C54.372 29.0432 55.0898 28.7881 56.1813 28.5389L59.171 27.8627L59.1888 27.0975C59.1888 26.1839 58.5007 25.7272 57.1244 25.7272C55.8075 25.7272 55.1016 26.2611 55.0067 27.3288H53.5297C53.5653 26.5221 53.7669 25.9051 54.1347 25.478C54.7635 24.7543 55.7838 24.3925 57.1956 24.3925C59.4854 24.3925 60.6302 25.223 60.6302 26.8839V31.9913C60.6302 32.4422 60.826 32.6676 61.2175 32.6676C61.265 32.6676 61.3895 32.632 61.5912 32.5608C61.6624 32.5371 61.7099 32.5193 61.7336 32.5074ZM59.1888 29.055L56.8397 29.6601C55.9974 29.8736 55.416 30.0931 55.0957 30.3185C54.7872 30.5439 54.633 30.8583 54.633 31.2617C54.633 32.199 55.2381 32.6676 56.4482 32.6676C57.3024 32.6676 58.0261 32.3888 58.6193 31.8312C58.9989 31.4871 59.1888 31.0956 59.1888 30.6567V29.055Z" fill="white"/>
<path d="M58.8745 21.1243C57.9806 21.1319 57.1041 20.8769 56.3539 20.3908L57.4171 18.7934C57.9421 19.1127 58.5573 19.2512 59.1685 19.1877L59.3141 19.1761C59.6295 19.183 59.94 19.0974 60.2073 18.9298C60.4746 18.7622 60.687 18.52 60.8182 18.2331C61.0806 17.7498 61.2127 17.2066 61.2016 16.6568V9.41113H63.1184V16.6619C63.1291 17.5465 62.9089 18.4186 62.4794 19.1921C62.1819 19.7586 61.7373 20.2344 61.1924 20.5697C60.6474 20.905 60.0222 21.0873 59.3825 21.0975C59.2139 21.1167 59.0442 21.1256 58.8745 21.1243Z" fill="white"/>
<path d="M57.5733 13.5017C57.3305 13.3228 51.6183 9.16969 47.5802 9.16969C43.8423 9.16969 42.8519 11.7638 42.8519 13.1439L44.7688 13.1503C44.7816 12.8053 44.9541 11.0865 47.5802 11.0865C50.0593 11.0865 53.5735 13.1503 55.3434 14.294C53.5607 15.508 49.8421 17.7444 46.3215 17.936C43.5573 18.0912 40.7868 18.1018 38.0215 17.968C37.5242 17.9536 37.0402 17.8034 36.6222 17.5335C36.3316 17.3464 36.0953 17.0862 35.9372 16.7789C35.779 16.4715 35.7046 16.128 35.7213 15.7828C35.7213 13.5529 34.9801 11.751 33.6383 10.7032C32.7758 10.0323 31.2551 9.35498 28.8782 9.9492C26.5205 10.537 25.6835 12.4219 24.9423 14.0768C23.9903 16.2173 23.166 18.0574 19.377 18.0574H12.9684C12.3167 18.0574 11.2177 17.2588 11.2177 14.2749V8.23682L10.3104 7.28479C10.0868 7.27202 4.80907 7.00366 2.25968 9.64251C1.74477 10.1766 1.35677 10.8199 1.12448 11.5245C0.89219 12.2291 0.821596 12.977 0.917905 13.7126C0.942015 14.3031 1.08267 14.883 1.33179 15.4189C1.58091 15.9548 1.93356 16.4362 2.36946 16.8352C2.80535 17.2343 3.31587 17.5432 3.87163 17.7442C4.42739 17.9452 5.01743 18.0343 5.60775 18.0063H5.62694C7.05949 17.9891 8.4399 17.4664 9.5245 16.5304C9.70259 17.4939 10.1655 18.382 10.8535 19.0797C11.4143 19.6285 12.1588 19.9496 12.9428 19.9807C12.96 19.9798 12.9771 19.9777 12.994 19.9743H19.377C24.4119 19.9743 25.6771 17.1373 26.693 14.8563C27.4342 13.195 27.9581 12.1536 29.3382 11.8085C30.6481 11.4827 31.696 11.6168 32.4563 12.2111C33.3253 12.8884 33.8045 14.1599 33.8045 15.7828C33.8031 15.9365 33.8116 16.0902 33.83 16.2428C32.9674 17.3674 32.0474 17.9808 31.0826 18.0702C30.0401 18.0859 29.0323 17.6965 28.2712 16.984L26.923 18.345C27.9818 19.3499 29.3685 19.9377 30.827 19.9998C30.9612 19.9998 31.0953 19.9934 31.2359 19.9807C32.5376 19.8388 33.7423 19.2251 34.6223 18.2555C34.8811 18.5902 35.1917 18.8814 35.5424 19.1181C36.2498 19.5859 37.0718 19.8511 37.9193 19.8848C40.7528 20.0186 43.5913 20.008 46.4237 19.8529C51.8739 19.559 57.3752 15.2077 57.6052 15.0224L57.5733 13.5017ZM9.30088 13.0992C9.12198 14.9649 7.29458 16.0831 5.62054 16.0895H5.60775C5.25544 16.1153 4.90157 16.0688 4.5679 15.9528C4.23423 15.8368 3.9278 15.6538 3.66747 15.415C3.40714 15.1762 3.19842 14.8867 3.05411 14.5643C2.9098 14.2419 2.83298 13.8933 2.82835 13.5401C2.76048 13.0799 2.79765 12.6104 2.93708 12.1667C3.0765 11.7229 3.31458 11.3165 3.63343 10.9779C4.94966 9.61056 7.65879 9.23997 9.30088 9.18885V13.0992Z" fill="white"/>
<path d="M81.7764 22.8597C81.7729 22.8258 81.7675 22.7921 81.7604 22.7588C81.7685 22.7919 81.7738 22.8257 81.7764 22.8597Z" fill="white"/>
<path d="M81.7764 22.8597C81.7729 22.8258 81.7675 22.7921 81.7604 22.7588C81.7685 22.7919 81.7738 22.8257 81.7764 22.8597Z" fill="white"/>
<path d="M90.6802 18.962C90.6802 18.962 86.3136 23.7707 84.8236 26.4473C83.3335 29.1238 79.6264 30.1985 77.0846 30.8982C74.5429 31.5978 74.571 33.3332 74.571 33.3332L74.4196 35.6717C72.7466 36.2437 70.9503 36.3541 69.2198 35.9912L68.9719 35.9446L69.6377 33.1102C69.9657 31.6795 70.5747 30.3283 71.4294 29.135C72.2841 27.9417 73.3674 26.9301 74.6164 26.1591C75.0548 25.893 75.5116 25.6581 75.9831 25.4563C76.8591 25.0831 77.6891 24.7368 78.4584 24.4231C78.7222 24.3285 79.02 24.2058 79.3395 24.0666H79.344C80.7394 23.4551 82.6428 22.436 83.7425 22.3152C83.9806 22.2706 84.2267 22.3028 84.4453 22.4072C84.5142 22.4482 84.5732 22.5038 84.6184 22.57C84.6635 22.6362 84.6936 22.7115 84.7066 22.7906C84.715 22.8241 84.7205 22.8583 84.7233 22.8928V22.9113C84.8511 24.5649 79.2449 27.5367 78.9855 27.6702H78.9804H78.9766C80.9683 27.172 82.7902 26.1494 84.253 24.7087C84.253 24.7087 86.1909 22.5912 85.0568 21.9695C85.0184 21.9486 84.9784 21.9307 84.9373 21.9159L84.9277 21.912C84.8617 21.8867 84.7932 21.8689 84.7233 21.859C84.7129 21.8567 84.7025 21.8552 84.6919 21.8545C84.0377 21.7465 82.4288 21.8494 79.2558 23.9349H79.2513C79.5165 23.7132 85.3398 18.7665 89.1262 17.0413C89.1262 17.0413 90.6738 16.3161 91.3415 16.9774C92.0092 17.6387 90.6802 18.962 90.6802 18.962Z" fill="white"/>
<path d="M74.2917 21.6235C74.2917 21.6235 78.6583 16.8142 80.1483 14.1383C81.6383 11.4624 85.3455 10.387 87.8872 9.68736C90.429 8.98771 90.4009 7.25234 90.4009 7.25234L90.5523 4.91379C92.2253 4.34152 94.0216 4.23115 95.752 4.59432L96 4.64032L95.3342 7.47469C94.9583 9.16224 94.187 10.7364 93.0839 12.0676C91.9807 13.3988 90.5772 14.4491 88.9888 15.1318C88.1128 15.505 87.2828 15.8506 86.5135 16.1644C86.2496 16.2589 85.9519 16.3816 85.6324 16.5203L85.6279 16.5235C84.2325 17.1349 82.329 18.1541 81.2294 18.2742C80.9914 18.3193 80.7451 18.2873 80.5266 18.1828C80.4577 18.1418 80.3987 18.0862 80.3535 18.02C80.3084 17.9538 80.2782 17.8785 80.2652 17.7994C80.2568 17.7659 80.2512 17.7317 80.2486 17.6972V17.6787C80.1208 16.0251 85.727 13.054 85.9864 12.9198H85.9915H85.9953C84.0037 13.4179 82.1817 14.4403 80.7189 15.8807C80.7189 15.8807 78.781 17.9988 79.9151 18.6205C79.9539 18.641 79.994 18.6589 80.0352 18.6741L80.0442 18.678C80.1102 18.703 80.1787 18.7208 80.2486 18.731L80.2799 18.7355C80.9342 18.8428 82.5431 18.74 85.7161 16.6551L85.7206 16.6519C85.4554 16.8736 79.632 21.821 75.8456 23.5461C75.8456 23.5461 74.2981 24.2707 73.631 23.61C72.964 22.9493 74.2917 21.6235 74.2917 21.6235Z" fill="#6ACEE5"/>
<path d="M6.84575 3.24594C7.49858 3.24594 8.0278 2.71672 8.0278 2.06389C8.0278 1.41106 7.49858 0.881836 6.84575 0.881836C6.19292 0.881836 5.6637 1.41106 5.6637 2.06389C5.6637 2.71672 6.19292 3.24594 6.84575 3.24594Z" fill="white"/>
<path d="M10.0406 3.24594C10.6934 3.24594 11.2226 2.71672 11.2226 2.06389C11.2226 1.41106 10.6934 0.881836 10.0406 0.881836C9.38774 0.881836 8.85852 1.41106 8.85852 2.06389C8.85852 2.71672 9.38774 3.24594 10.0406 3.24594Z" fill="white"/>
</svg>
