<svg width="60" height="61" viewBox="0 0 60 61" fill="none" xmlns="http://www.w3.org/2000/svg">
<mask id="mask0_1534_7104" style="mask-type:luminance" maskUnits="userSpaceOnUse" x="0" y="0" width="60" height="61">
<path d="M0.567871 3.05176e-05H60.0002V60.1921H0.567871V3.05176e-05Z" fill="white"/>
</mask>
<g mask="url(#mask0_1534_7104)">
<mask id="mask1_1534_7104" style="mask-type:luminance" maskUnits="userSpaceOnUse" x="0" y="0" width="60" height="61">
<path d="M54.9784 14.4537C48.9718 5.21683 40.3726 0.31014 29.3061 0.000844955C29.64 0.381516 29.9565 0.778842 30.2515 1.19282C30.2515 1.19282 36.4842 2.41811 38.4732 3.12711C48.0875 6.55632 53.3408 14.5718 54.781 24.6461C55.4995 29.671 54.5066 34.4016 51.7047 38.7334C50.6792 40.3187 49.2565 40.9904 47.5213 41.2275C46.3245 41.3917 45.1199 41.2957 43.9168 41.2355C39.957 41.0309 36.1899 41.8152 32.5942 43.4584C30.483 44.4236 28.2989 45.0596 25.9507 45.0691C24.2107 45.0858 22.4953 44.6536 20.971 43.8161C20.2129 43.4037 19.2326 42.9366 18.5998 43.5806C17.8812 44.3094 18.5736 45.2246 18.9939 45.9931C19.1018 46.1755 19.2279 46.3476 19.3682 46.5054C21.45 49.002 24.0846 50.0004 27.2989 49.4342C28.8303 49.1645 30.349 48.7981 31.9225 48.8798C32.8963 48.9298 33.7751 49.1399 34.0717 50.2312C34.327 51.175 33.8218 52.0775 32.7068 52.5858C30.1722 53.7413 27.5027 53.727 24.8927 53.0791C21.6673 52.2773 18.825 50.6103 16.1738 48.6134C14.1078 47.0597 11.9412 45.6552 9.60799 44.5362C7.34617 43.4529 5.08594 42.3402 2.5624 41.9857C1.90654 41.8945 1.1333 41.7637 0.809731 42.5623C0.509159 43.3022 1.01672 43.8518 1.51714 44.311C2.38476 45.1088 3.45936 45.5894 4.48479 46.1422C5.60619 46.7465 6.73393 47.3349 7.79663 48.0534C11.2853 50.4144 14.4631 53.1838 17.8947 55.6177C21.5357 58.1975 25.4344 60.0803 30.0096 60.1532C40.6811 60.3253 49.0098 55.881 54.9388 47.1176C61.5839 37.2963 61.4213 24.3662 54.9745 14.4537" fill="white"/>
</mask>
<g mask="url(#mask1_1534_7104)">
<mask id="mask2_1534_7104" style="mask-type:luminance" maskUnits="userSpaceOnUse" x="0" y="-1" width="61" height="62">
<path d="M60.0199 -0.0388889H0.533691V60.2594H60.0199V-0.0388889Z" fill="white"/>
</mask>
<g mask="url(#mask2_1534_7104)">
<mask id="mask3_1534_7104" style="mask-type:luminance" maskUnits="userSpaceOnUse" x="0" y="-1" width="60" height="62">
<path d="M0.567871 -0.000133514H60.0002V60.1919H0.567871V-0.000133514Z" fill="white"/>
</mask>
<g mask="url(#mask3_1534_7104)">
<mask id="mask4_1534_7104" style="mask-type:luminance" maskUnits="userSpaceOnUse" x="0" y="0" width="60" height="61">
<path d="M54.9784 14.4535C48.9718 5.2167 40.3726 0.310009 29.3061 0.000713348C29.64 0.381385 29.9565 0.77871 30.2515 1.19269C30.2515 1.19269 36.4842 2.41798 38.4732 3.12698C48.0875 6.55619 53.3408 14.5717 54.781 24.646C55.4995 29.6709 54.5066 34.4015 51.7047 38.7332C50.6792 40.3186 49.2565 40.9903 47.5213 41.2274C46.3245 41.3916 45.1199 41.2956 43.9168 41.2353C39.957 41.0307 36.1899 41.8151 32.5942 43.4583C30.483 44.4235 28.2989 45.0595 25.9507 45.069C24.2107 45.0857 22.4953 44.6535 20.971 43.816C20.2129 43.4036 19.2326 42.9365 18.5998 43.5804C17.8812 44.3093 18.5736 45.2245 18.9939 45.9929C19.1018 46.1753 19.2279 46.3474 19.3682 46.5053C21.45 49.0018 24.0846 50.0003 27.2989 49.434C28.8303 49.1644 30.349 48.798 31.9225 48.8797C32.8963 48.9297 33.7751 49.1398 34.0717 50.2311C34.327 51.1748 33.8218 52.0773 32.7068 52.5857C30.1722 53.7412 27.5027 53.7269 24.8927 53.079C21.6673 52.2772 18.825 50.6102 16.1738 48.6132C14.1078 47.0596 11.9412 45.6551 9.60799 44.5361C7.34617 43.4527 5.08594 42.3401 2.5624 41.9856C1.90654 41.8944 1.1333 41.7635 0.809731 42.5621C0.509159 43.3021 1.01672 43.8517 1.51714 44.3108C2.38476 45.1087 3.45936 45.5893 4.48479 46.142C5.60619 46.7463 6.73393 47.3348 7.79663 48.0533C11.2853 50.4143 14.4631 53.1837 17.8947 55.6176C21.5357 58.1974 25.4344 60.0802 30.0096 60.1531C40.6811 60.3252 49.0098 55.8809 54.9388 47.1175C61.5839 37.2962 61.4213 24.3661 54.9745 14.4535" fill="white"/>
</mask>
<g mask="url(#mask4_1534_7104)">
<path d="M60.0199 -0.03899H0.533691V60.2593H60.0199V-0.03899Z" fill="#1E2144"/>
</g>
</g>
</g>
</g>
</g>
<mask id="mask5_1534_7104" style="mask-type:luminance" maskUnits="userSpaceOnUse" x="12" y="3" width="34" height="41">
<path d="M12.4243 3.81871H45.7124V43.4085H12.4243V3.81871Z" fill="white"/>
</mask>
<g mask="url(#mask5_1534_7104)">
<mask id="mask6_1534_7104" style="mask-type:luminance" maskUnits="userSpaceOnUse" x="12" y="3" width="34" height="41">
<path d="M19.1798 3.83137C18.455 6.93622 17.8982 9.79126 17.8736 12.7383C17.8269 18.4031 19.6239 23.2472 23.8748 27.1142C24.5655 27.7431 24.9692 27.6654 25.6084 27.0793C28.9306 24.022 32.6199 21.5699 36.9833 20.2153C39.3594 19.4785 42.2889 19.2248 45.6404 19.6522C43.519 20.7118 41.5086 21.6753 39.6591 22.9379C35.0641 26.0784 31.9363 30.2135 30.8863 35.7594C30.5072 37.727 30.4025 39.739 30.573 41.7375C30.6261 42.3355 30.4255 42.6519 29.8545 42.8121C26.9764 43.6186 24.1761 43.7662 21.4337 42.2324C20.3821 41.6447 19.16 41.3632 17.991 42.0587C17.4597 42.3751 17.3201 42.0222 17.1218 41.6812C15.3295 38.6096 14.0915 35.324 13.3159 31.8583C12.0557 26.2315 12.2516 20.642 13.7481 15.0881C14.7918 11.2132 16.5008 7.64443 18.7674 4.33735C18.8404 4.2287 18.9316 4.13432 19.183 3.83137" fill="white"/>
</mask>
<g mask="url(#mask6_1534_7104)">
<mask id="mask7_1534_7104" style="mask-type:luminance" maskUnits="userSpaceOnUse" x="12" y="3" width="34" height="41">
<path d="M45.8086 3.81866H12.3096V43.4085H45.8086V3.81866Z" fill="white"/>
</mask>
<g mask="url(#mask7_1534_7104)">
<mask id="mask8_1534_7104" style="mask-type:luminance" maskUnits="userSpaceOnUse" x="12" y="3" width="34" height="41">
<path d="M12.4248 3.8186H45.6542V43.4084H12.4248V3.8186Z" fill="white"/>
</mask>
<g mask="url(#mask8_1534_7104)">
<mask id="mask9_1534_7104" style="mask-type:luminance" maskUnits="userSpaceOnUse" x="12" y="3" width="34" height="41">
<path d="M19.1803 3.83134C18.4555 6.93619 17.8987 9.79122 17.8741 12.7383C17.8273 18.4031 19.6244 23.2472 23.8753 27.1141C24.566 27.743 24.9697 27.6653 25.6089 27.0792C28.931 24.022 32.6204 21.5698 36.9838 20.2153C39.3598 19.4785 42.2894 19.2247 45.6409 19.6522C43.5195 20.7117 41.5091 21.6753 39.6596 22.9379C35.0646 26.0784 31.9368 30.2134 30.8867 35.7593C30.5077 37.7269 30.403 39.7389 30.5735 41.7375C30.6266 42.3354 30.426 42.6519 29.855 42.8121C26.9769 43.6186 24.1766 43.7661 21.4342 42.2323C20.3826 41.6447 19.1605 41.3631 17.9915 42.0587C17.4602 42.3751 17.3206 42.0222 17.1223 41.6812C15.33 38.6096 14.092 35.3239 13.3164 31.8583C12.0562 26.2315 12.2521 20.6419 13.7486 15.0881C14.7923 11.2132 16.5013 7.6444 18.7679 4.33732C18.8409 4.22867 18.9321 4.13429 19.1835 3.83134" fill="white"/>
</mask>
<g mask="url(#mask9_1534_7104)">
<path d="M45.8091 3.81871H12.3101V43.4085H45.8091V3.81871Z" fill="#6ACEE5"/>
</g>
</g>
</g>
</g>
</g>
<mask id="mask10_1534_7104" style="mask-type:luminance" maskUnits="userSpaceOnUse" x="20" y="10" width="13" height="13">
<path d="M20.6333 10.6398H32.1843V22.1915H20.6333V10.6398Z" fill="white"/>
</mask>
<g mask="url(#mask10_1534_7104)">
<mask id="mask11_1534_7104" style="mask-type:luminance" maskUnits="userSpaceOnUse" x="20" y="10" width="13" height="13">
<path d="M26.4281 22.1114C23.1885 22.1177 20.7728 19.6568 20.7212 16.2982C20.6768 13.3956 23.397 10.7063 26.3766 10.7063C29.533 10.6912 32.1041 13.2385 32.1192 16.3965V16.4132C32.1223 19.6418 29.6599 22.109 26.4281 22.1145" fill="white"/>
</mask>
<g mask="url(#mask11_1534_7104)">
<mask id="mask12_1534_7104" style="mask-type:luminance" maskUnits="userSpaceOnUse" x="20" y="10" width="13" height="13">
<path d="M32.2057 10.5184H20.6333V22.2938H32.2057V10.5184Z" fill="white"/>
</mask>
<g mask="url(#mask12_1534_7104)">
<mask id="mask13_1534_7104" style="mask-type:luminance" maskUnits="userSpaceOnUse" x="20" y="10" width="13" height="13">
<path d="M20.6689 10.673H32.1628V22.1185H20.6689V10.673Z" fill="white"/>
</mask>
<g mask="url(#mask13_1534_7104)">
<mask id="mask14_1534_7104" style="mask-type:luminance" maskUnits="userSpaceOnUse" x="20" y="10" width="13" height="13">
<path d="M26.4281 22.1114C23.1885 22.1178 20.7728 19.6569 20.7212 16.2983C20.6768 13.3956 23.397 10.7064 26.3766 10.7064C29.533 10.6913 32.1041 13.2386 32.1192 16.3966V16.4132C32.1223 19.6418 29.6599 22.109 26.4281 22.1146" fill="white"/>
</mask>
<g mask="url(#mask14_1534_7104)">
<path d="M32.2057 10.5186H20.6333V22.294H32.2057V10.5186Z" fill="#6ACEE5"/>
</g>
</g>
</g>
</g>
</g>
<mask id="mask15_1534_7104" style="mask-type:luminance" maskUnits="userSpaceOnUse" x="3" y="47" width="26" height="14">
<path d="M3.78223 47.2723H28.7543V60.6481H3.78223V47.2723Z" fill="white"/>
</mask>
<g mask="url(#mask15_1534_7104)">
<mask id="mask16_1534_7104" style="mask-type:luminance" maskUnits="userSpaceOnUse" x="3" y="47" width="26" height="14">
<path d="M28.6931 60.5165C25.7088 61.005 23.0251 60.0541 20.4214 58.8106C17.2555 57.299 14.3442 55.3592 11.4463 53.3971C9.47396 52.0624 7.48019 50.761 5.34447 49.688C4.60374 49.3152 3.52438 48.8354 4.00577 47.8615C4.48954 46.8797 5.61252 47.4142 6.34611 47.7521C8.48183 48.7355 10.2305 50.3153 12.0839 51.7277C13.4337 52.7547 14.7653 53.8063 16.1175 54.8326C19.8734 57.6813 23.8483 60.0462 28.6963 60.5165" fill="white"/>
</mask>
<g mask="url(#mask16_1534_7104)">
<mask id="mask17_1534_7104" style="mask-type:luminance" maskUnits="userSpaceOnUse" x="3" y="47" width="26" height="14">
<path d="M28.7543 47.266H3.78223V60.6656H28.7543V47.266Z" fill="white"/>
</mask>
<g mask="url(#mask17_1534_7104)">
<mask id="mask18_1534_7104" style="mask-type:luminance" maskUnits="userSpaceOnUse" x="3" y="47" width="26" height="14">
<path d="M3.78223 47.2725H28.7051V60.6483H3.78223V47.2725Z" fill="white"/>
</mask>
<g mask="url(#mask18_1534_7104)">
<mask id="mask19_1534_7104" style="mask-type:luminance" maskUnits="userSpaceOnUse" x="3" y="47" width="26" height="14">
<path d="M28.6931 60.5166C25.7088 61.0051 23.0251 60.0542 20.4214 58.8107C17.2555 57.2991 14.3442 55.3593 11.4463 53.3972C9.47396 52.0625 7.48019 50.7611 5.34447 49.6881C4.60374 49.3153 3.52438 48.8355 4.00577 47.8616C4.48954 46.8798 5.61252 47.4143 6.34611 47.7522C8.48183 48.7356 10.2305 50.3154 12.0839 51.7278C13.4337 52.7548 14.7653 53.8064 16.1175 54.8327C19.8734 57.6814 23.8483 60.0463 28.6963 60.5166" fill="white"/>
</mask>
<g mask="url(#mask19_1534_7104)">
<path d="M28.7543 47.2661H3.78223V60.6657H28.7543V47.2661Z" fill="#212146"/>
</g>
</g>
</g>
</g>
</g>
<mask id="mask20_1534_7104" style="mask-type:luminance" maskUnits="userSpaceOnUse" x="5" y="51" width="18" height="10">
<path d="M5.73633 51.5294H22.2575V60.0398H5.73633V51.5294Z" fill="white"/>
</mask>
<g mask="url(#mask20_1534_7104)">
<mask id="mask21_1534_7104" style="mask-type:luminance" maskUnits="userSpaceOnUse" x="5" y="51" width="18" height="10">
<path d="M22.2139 59.9169C21.2948 60.1944 20.5049 59.8772 19.7166 59.6266C16.971 58.7542 14.495 57.3005 11.9628 55.969C10.4314 55.164 8.90946 54.3392 7.28685 53.7198C7.02197 53.6223 6.76818 53.493 6.53344 53.336C6.1258 53.0545 5.64758 52.7499 5.86568 52.1551C6.10122 51.5112 6.6754 51.531 7.20913 51.6801C8.1957 51.9497 9.13786 52.3605 10.0079 52.899C12.9089 54.7136 15.7703 56.5915 18.703 58.3513C19.7943 59.0056 21.0394 59.4029 22.2139 59.9169Z" fill="white"/>
</mask>
<g mask="url(#mask21_1534_7104)">
<mask id="mask22_1534_7104" style="mask-type:luminance" maskUnits="userSpaceOnUse" x="5" y="51" width="18" height="10">
<path d="M22.2574 51.5293H5.60938V60.0563H22.2574V51.5293Z" fill="white"/>
</mask>
<g mask="url(#mask22_1534_7104)">
<mask id="mask23_1534_7104" style="mask-type:luminance" maskUnits="userSpaceOnUse" x="5" y="51" width="18" height="10">
<path d="M5.73633 51.5293H22.2281V60.0396H5.73633V51.5293Z" fill="white"/>
</mask>
<g mask="url(#mask23_1534_7104)">
<mask id="mask24_1534_7104" style="mask-type:luminance" maskUnits="userSpaceOnUse" x="5" y="51" width="18" height="10">
<path d="M22.2139 59.9167C21.2948 60.1943 20.5049 59.877 19.7166 59.6264C16.971 58.7541 14.495 57.3004 11.9628 55.9688C10.4314 55.1639 8.90946 54.3391 7.28685 53.7197C7.02197 53.6221 6.76818 53.4929 6.53344 53.3358C6.1258 53.0543 5.64758 52.7498 5.86568 52.155C6.10122 51.511 6.6754 51.5308 7.20913 51.6799C8.1957 51.9496 9.13786 52.3604 10.0079 52.8989C12.9089 54.7134 15.7703 56.5914 18.703 58.3512C19.7943 59.0055 21.0394 59.4028 22.2139 59.9167Z" fill="white"/>
</mask>
<g mask="url(#mask24_1534_7104)">
<path d="M22.2574 51.5292H5.60938V60.0562H22.2574V51.5292Z" fill="#212146"/>
</g>
</g>
</g>
</g>
</g>
</svg>
